<svg width="160" height="160" viewBox="0 0 160 160" fill="none" xmlns="http://www.w3.org/2000/svg">
<rect width="160" height="160" rx="80" fill="#648FFF"/>
<g clip-path="url(#clip0_320_6499)">
<path d="M104.223 149.329C93.882 144.207 97.1718 127.241 97.1718 127.241L80.2545 127.556L63.3372 127.241C63.3372 127.241 66.627 144.207 56.2893 149.329" fill="#FAC9A6"/>
<path opacity="0.5" d="M58.9759 147.794C67.1797 147.763 75.3096 146.24 82.9693 143.298C87.8368 141.414 92.4556 138.941 96.7225 135.933C96.5751 133.029 96.7225 130.118 97.1624 127.244L80.2451 127.578L63.3278 127.244C63.8225 129.728 63.9863 132.267 63.8148 134.794C63.6451 137.283 63.3403 141.064 60.9334 145.075C60.3584 146.035 59.7035 146.944 58.9759 147.794Z" fill="#CEA78E"/>
<path d="M143.343 136.962C137.957 125.136 105.951 119.288 98.435 115.708C92.5089 118.539 85.282 120.185 77.4769 120.185C71.1272 120.225 64.8273 119.062 58.9099 116.756C48.3931 120.414 21.5466 126.225 16.6543 136.962C13.2996 144.349 10.7391 152.071 9.01572 160H151C149.27 152.071 146.703 144.348 143.343 136.962Z" fill="#55BEC5"/>
<path d="M143.343 136.962C137.957 125.136 105.951 119.288 98.435 115.708C92.5089 118.539 85.282 120.185 77.4769 120.185C71.1272 120.225 64.8273 119.062 58.9099 116.756C48.3931 120.414 21.5466 126.225 16.6543 136.962C13.2996 144.349 10.7391 152.071 9.01572 160H151C149.27 152.071 146.703 144.348 143.343 136.962Z" fill="#A384BC"/>
<path opacity="0.8" d="M25.9456 129.462C25.9456 129.462 74.6489 160.214 132.512 128.638" stroke="#EAEAEA" stroke-width="3" stroke-linecap="round" stroke-linejoin="round"/>
<path d="M72.8925 113.896C72.8925 113.896 39.8088 113.823 21.754 129.264C19.6456 131.082 19.699 132.803 19.699 132.803C19.6904 133.54 19.9688 134.251 20.4751 134.785C20.9833 135.281 21.62 135.626 22.3133 135.779C23.2703 135.998 24.2636 136.003 25.2229 135.795C24.717 137.368 25.1098 138.312 25.2418 138.576C26.0933 140.306 29.0123 141.077 32.1922 139.686C32.1294 140.413 32.1388 141.722 32.896 142.813C34.1718 144.651 37.1002 145.208 39.9282 143.789C40.1041 144.553 40.632 146.387 42.2282 147.661C44.3775 149.379 47.5699 149.382 50.2878 147.636C50.9806 149.154 52.1933 150.374 53.7065 151.075C57.1063 152.544 60.2296 150.181 60.4213 150.03C60.4935 150.191 61.5556 152.418 64.0347 152.783C64.91 152.906 65.8021 152.782 66.6112 152.426C67.4202 152.07 68.1144 151.495 68.616 150.767C68.9608 151.619 69.548 152.352 70.3048 152.874C71.0615 153.395 71.9546 153.683 72.8732 153.702C73.7918 153.72 74.6956 153.468 75.4726 152.977C76.2496 152.486 76.8657 151.778 77.2443 150.94C77.6676 151.849 78.3421 152.618 79.188 153.156C80.0339 153.693 81.0159 153.977 82.0179 153.974C83.0199 153.971 84 153.68 84.8423 153.137C85.6847 152.594 86.3541 151.82 86.7713 150.908C87.473 151.543 88.2939 152.032 89.1861 152.346C90.0784 152.661 91.0242 152.794 91.9685 152.739C95.1703 152.506 96.9959 150.081 97.263 149.703C100.075 151.194 103.095 151.002 104.993 149.304C105.761 148.587 106.307 147.664 106.564 146.645C108.842 148.253 111.877 148.608 114.218 147.554C114.959 147.226 115.624 146.746 116.17 146.147C116.716 145.547 117.132 144.841 117.392 144.072C117.392 144.072 123.538 147.13 125.382 141.87C125.382 141.87 131.352 144.103 132.125 139.07C134.152 140.328 136.376 140.146 137.467 138.872C137.958 138.243 138.224 137.467 138.221 136.669C139.137 136.281 139.907 135.613 140.42 134.76C140.809 133.825 140.904 132.793 140.694 131.803C140.332 130.053 118.567 113.993 72.8925 113.896Z" fill="white"/>
<path d="M54.8282 116.897C54.8282 116.897 60.327 114.173 61.5807 109.976C73.6984 111.373 85.9578 110.917 97.9385 108.623C98.2229 109.687 98.6454 110.709 99.1954 111.662C100.31 113.723 102.079 115.354 104.223 116.296C104.223 116.296 77.6717 127.851 54.8282 116.897Z" fill="#087CA8"/>
<path d="M55.2556 91.3455C52.7419 83.5089 46.7718 85.321 46.1968 85.5098C45.6123 85.579 39.4349 86.4976 40.5032 94.6645C41.5715 102.831 46.335 107.327 50.8 106.021C55.3938 105.285 57.7944 99.2293 55.2556 91.3455Z" fill="#EFBF9E"/>
<path d="M106.938 91.3455C109.451 83.5089 115.437 85.321 115.996 85.5098C116.584 85.579 122.758 86.4976 121.693 94.6645C120.628 102.831 115.858 107.327 111.396 106.021C106.803 105.285 104.402 99.2293 106.938 91.3455Z" fill="#EFBF9E"/>
<path d="M112.773 79.0166C109.646 44.6563 83.5506 46.5817 81.0966 46.8396C78.6363 46.5817 52.5471 44.6563 49.4206 79.0166C46.2785 113.581 61.6499 136.154 81.0966 134.911C100.543 136.154 115.918 113.581 112.773 79.0166Z" fill="#FAC9A6"/>
<path d="M81.5459 91.1284L83.3841 104.426C82.6506 104.912 81.8048 105.201 80.9278 105.265C80.0508 105.33 79.1719 105.168 78.3755 104.795" stroke="#DBB295" stroke-width="3" stroke-miterlimit="10" stroke-linecap="round"/>
<path d="M78.4101 124.296C78.4101 124.296 82.2592 125.734 84.9898 123.846" stroke="#DBAF91" stroke-width="2" stroke-miterlimit="10" stroke-linecap="round"/>
<path d="M74.1242 116.853C75.1674 117.325 80.4085 119.571 85.6621 117.41C86.9787 116.868 88.1884 116.096 89.2348 115.129" stroke="#DBAF91" stroke-width="3" stroke-miterlimit="10" stroke-linecap="round"/>
<path d="M58.7842 86.0949C59.1859 85.3888 59.6701 84.733 60.2265 84.1413C60.7878 83.5408 61.4078 82.998 62.0772 82.5211C63.4538 81.5169 65.0712 80.895 66.7653 80.7185C68.4941 80.5602 70.2272 80.9711 71.7016 81.8888C73.1009 82.7666 74.2597 83.9797 75.0731 85.4185C73.8609 84.454 72.5381 83.6377 71.1329 82.9867C70.462 82.6994 69.7611 82.4884 69.0433 82.3575C68.3372 82.2418 67.6194 82.2154 66.9067 82.2789C65.4393 82.4396 64.0164 82.8807 62.715 83.5782C61.3309 84.2955 60.0152 85.1379 58.7842 86.0949Z" fill="#EDEDED"/>
<path d="M86.6268 86.0949C87.0285 85.3888 87.5126 84.733 88.069 84.1413C88.6308 83.54 89.2519 82.9971 89.9229 82.5211C91.2984 81.517 92.9147 80.8951 94.6079 80.7185C96.3367 80.5602 98.0698 80.9711 99.5442 81.8888C100.944 82.7674 102.103 83.9803 102.919 85.4185C101.705 84.454 100.382 83.6377 98.9754 82.9867C98.3046 82.6994 97.6037 82.4884 96.8859 82.3575C96.1798 82.2418 95.462 82.2154 94.7493 82.2789C93.2852 82.4408 91.8655 82.8818 90.5671 83.5782C89.1801 84.2957 87.8613 85.1381 86.6268 86.0949Z" fill="#EDEDED"/>
<path d="M74.9129 105.285C74.1525 106.374 73.4109 107.456 72.6882 108.551C72.3332 109.101 71.9749 109.649 71.6387 110.209L71.1297 111.043L70.6458 111.892C70.4793 112.172 70.3316 112.461 70.1776 112.748L69.9451 113.179L69.7346 113.616C69.5963 113.908 69.4361 114.195 69.3104 114.494C69.1847 114.793 69.0559 115.088 68.9208 115.387C68.4268 116.597 68.0429 117.849 67.7739 119.128C67.7398 117.787 67.9331 116.449 68.3458 115.173C68.7659 113.895 69.3111 112.661 69.9734 111.489C70.6328 110.33 71.3797 109.222 72.2075 108.177C73.0173 107.131 73.9231 106.163 74.9129 105.285Z" fill="#DBB295"/>
<path d="M87.8397 105.072C88.8338 105.955 89.7437 106.929 90.5576 107.982C91.3861 109.027 92.133 110.134 92.7917 111.294C93.449 112.461 93.99 113.69 94.4068 114.962C94.8219 116.239 95.0164 117.578 94.9818 118.92C94.7124 117.639 94.3275 116.385 93.8317 115.173C93.6966 114.878 93.5647 114.579 93.4421 114.28C93.3196 113.981 93.1562 113.695 93.0179 113.402L92.8074 112.965L92.5749 112.534C92.4178 112.251 92.2607 111.958 92.1067 111.678L91.6228 110.829L91.1138 110.004C90.7776 109.444 90.4194 108.897 90.0643 108.346C89.3416 107.245 88.6001 106.16 87.8397 105.072Z" fill="#DBB295"/>
<path d="M65.6247 68.5468C68.1369 67.7077 70.7094 67.062 73.3198 66.6152C75.9325 66.1505 78.5739 65.8646 81.2254 65.7595C82.5514 65.7249 83.8805 65.7091 85.2097 65.7784C86.5397 65.8432 87.8654 65.9776 89.1814 66.1811C90.4973 66.3844 91.7979 66.6766 93.0745 67.0556C94.3447 67.4395 95.5774 67.9387 96.7571 68.5468C95.513 68.1222 94.2444 67.7734 92.9582 67.5024C91.6794 67.2287 90.3816 67.0556 89.0871 66.9109C87.7925 66.7662 86.4823 66.7001 85.1783 66.6718C83.8743 66.6435 82.564 66.6529 81.2569 66.7001C79.9497 66.7473 78.6457 66.8291 77.3386 66.9392C76.0315 67.0493 74.7306 67.1909 73.4266 67.3419C70.8218 67.6691 68.2232 68.0655 65.6247 68.5468Z" fill="#DBAF91"/>
<path d="M73.3135 73.4796C74.5455 72.9712 75.8256 72.5886 77.1344 72.3376C78.442 72.0691 79.7692 71.9071 81.1029 71.8531C82.4458 71.8001 83.7906 71.8876 85.1154 72.1143C86.4429 72.3432 87.7194 72.8054 88.886 73.4796C87.6181 73.1648 86.3265 72.9544 85.0243 72.8504C83.736 72.7529 82.4414 72.7655 81.1437 72.7969L80.1728 72.8347L79.1987 72.9039C78.5483 72.9417 77.8979 73.0077 77.2475 73.0644C75.9435 73.1965 74.6364 73.3349 73.3135 73.4796Z" fill="#DBAF91"/>
<path d="M101.998 43.8005C101.844 44.1812 101.684 44.565 101.492 44.9488C99.805 48.5132 96.9393 52.2223 92.6283 55.9597H71.3999C71.3999 55.9597 63.7802 51.7473 59.8086 44.9174C59.598 44.5556 59.3969 44.1844 59.2084 43.81C56.4402 38.2762 56.2516 31.2261 63.9625 23.3612C79.2239 7.84841 110.454 23.0309 101.998 43.8005Z" fill="#EDEDED"/>
<path d="M101.492 44.9488C99.805 48.5132 96.9393 52.2223 92.6283 55.9597H71.3999C71.3999 55.9597 63.7802 51.7473 59.8085 44.9174C62.2908 43.4073 71.1925 40.3588 80.0314 42.4792C80.0283 42.4792 91.6228 39.5535 101.492 44.9488Z" fill="#D7D7D7"/>
<path d="M52.0223 83.0967C52.0223 83.0967 79.2427 75.6062 79.2427 60.4992C81.2705 63.7478 83.6269 66.7787 86.2749 69.5439C91.9901 75.4689 98.9133 80.0914 106.573 83.0967L111.104 86.724C111.104 86.724 113.524 84.6477 115.377 84.0877C115.377 84.0877 120.829 38.1786 79.1736 44.3164C70.7872 42.3501 65.1031 44.3164 62.6616 45.3829C50.6021 50.6775 43.438 66.8824 46.3225 85.3555L52.0223 83.0967Z" fill="#EDEDED"/>
<path d="M49.2572 99.9656C49.7663 97.625 50.225 95.1302 50.6021 92.4907C51.2242 88.1273 51.5705 83.7289 51.639 79.3217L45.7789 74.2693C45.1907 82.9826 46.3762 91.7247 49.2635 99.9656H49.2572Z" fill="#EDEDED"/>
<path d="M111.78 99.3269C111.371 97.1415 111.005 94.8628 110.68 92.4907C110.052 87.8284 109.7 83.4209 109.546 79.3217L115.494 77.6008C115.827 85.0309 114.56 92.4457 111.78 99.3426V99.3269Z" fill="#EDEDED"/>
<path d="M69.4078 91.443C69.4518 93.62 68.4872 95.4038 67.2523 95.4195C66.0174 95.4353 64.9805 93.6861 64.9334 91.506C64.8863 89.3258 65.854 87.5483 67.0889 87.5294C68.3238 87.5106 69.3607 89.2409 69.4078 91.443Z" fill="#040505"/>
<path d="M92.7854 91.443C92.7414 93.62 93.706 95.4038 94.9409 95.4195C96.1758 95.4353 97.2127 93.6861 97.2598 91.506C97.3069 89.3258 96.3392 87.5483 95.1043 87.5294C93.8694 87.5106 92.8325 89.2409 92.7854 91.443Z" fill="#040505"/>
<path d="M66.0583 92.2642C65.8028 91.6018 65.7438 90.8797 65.8886 90.1847C66.0126 89.4896 66.3307 88.8438 66.8061 88.3223H66.825C66.1391 89.505 65.8775 90.887 66.0834 92.239L66.0583 92.2642Z" fill="white"/>
<path d="M94.0485 92.2642C93.7947 91.6048 93.7358 90.8862 93.8789 90.1942C94.0029 89.4998 94.3198 88.8543 94.7932 88.3318H94.8152C94.1277 89.5139 93.8659 90.8965 94.0737 92.2485L94.0485 92.2642Z" fill="white"/>
<path d="M62.3411 32.2988C62.3795 30.7641 62.7246 29.2526 63.356 27.8536C64.637 24.9909 66.9015 22.6835 69.7377 21.3508C71.1233 20.6924 72.6265 20.318 74.1587 20.2498C72.7842 20.7838 71.462 21.4441 70.209 22.2223C67.7695 23.7529 65.7243 25.8373 64.239 28.3066C63.4838 29.5754 62.8484 30.9119 62.3411 32.2988Z" fill="#E0E2E2"/>
<path d="M105.982 51.958C109.247 53.6037 111.818 56.3612 113.234 59.7349C114.701 63.3136 114.898 67.2875 113.794 70.9943" fill="#EDEDED"/>
<path d="M111.258 59.5963C111.019 47.2389 95.7422 45.1594 95.7422 45.1594L111.258 59.5963Z" fill="#EDEDED"/>
<path d="M46.1905 81.464C45.5212 79.2146 43.1269 70.258 47.2776 60.6093C50.0687 54.1121 55.2286 48.9245 61.7064 46.1033" stroke="#EDEDED" stroke-width="2" stroke-miterlimit="10"/>
<path d="M95.739 45.1594C97.2253 45.4489 105.929 47.2452 111.214 53.6535C116.411 59.9455 114.429 65.9826 114.042 67.0491" stroke="#EDEDED" stroke-width="2" stroke-miterlimit="10"/>
<path opacity="0.8" d="M48.4277 104.839C48.95 104.839 49.3735 104.415 49.3735 103.892C49.3735 103.369 48.95 102.945 48.4277 102.945C47.9053 102.945 47.4819 103.369 47.4819 103.892C47.4819 104.415 47.9053 104.839 48.4277 104.839Z" fill="#398EBB"/>
<path opacity="0.8" d="M113.816 105.071C114.338 105.071 114.762 104.647 114.762 104.124C114.762 103.601 114.338 103.177 113.816 103.177C113.293 103.177 112.87 103.601 112.87 104.124C112.87 104.647 113.293 105.071 113.816 105.071Z" fill="#398EBB"/>
<path opacity="0.5" d="M106.793 96.3365C107.302 90.7895 103.222 85.8803 97.6818 85.3716C92.1415 84.8628 87.2383 88.9472 86.7302 94.4943C86.2221 100.041 90.3015 104.95 95.8418 105.459C101.382 105.968 106.285 101.884 106.793 96.3365Z" fill="#B3DAE5" stroke="#805F6B" stroke-width="1.34" stroke-miterlimit="10"/>
<path opacity="0.5" d="M75.3918 97.8813C76.7556 92.4809 73.4887 86.9961 68.0949 85.6306C62.7011 84.2651 57.2229 87.536 55.8591 92.9364C54.4952 98.3367 57.7622 103.822 63.156 105.187C68.5498 106.553 74.028 103.282 75.3918 97.8813Z" fill="#B3DAE5" stroke="#805F6B" stroke-width="1.34" stroke-miterlimit="10"/>
<g opacity="0.6">
<path opacity="0.6" d="M67.5571 103.98C66.254 104.263 64.9016 104.224 63.6168 103.867C62.9611 103.694 62.3282 103.444 61.7315 103.121C61.1349 102.794 60.5737 102.406 60.0568 101.963C59.5521 101.506 59.0952 100.999 58.6931 100.45C58.3036 99.8977 57.9769 99.3037 57.719 98.6789C57.1983 97.4494 56.9827 96.112 57.0906 94.781H57.1534C57.2547 96.0613 57.5958 97.311 58.1589 98.4649C58.7246 99.6166 59.5118 100.645 60.4753 101.492C61.4389 102.338 62.5598 102.986 63.7739 103.398C64.9869 103.807 66.2662 103.983 67.5445 103.917L67.5571 103.98Z" fill="white"/>
</g>
<g opacity="0.6">
<path opacity="0.6" d="M98.9974 103.942C97.6943 104.225 96.3419 104.186 95.0572 103.829C94.4023 103.653 93.7698 103.403 93.1719 103.083C92.5752 102.755 92.014 102.366 91.4971 101.922C90.9925 101.467 90.5356 100.961 90.1334 100.412C89.7413 99.8605 89.4125 99.2664 89.1531 98.641C88.6323 97.4127 88.4166 96.0763 88.5246 94.7463H88.5875C88.6888 96.0276 89.0299 97.2784 89.593 98.4334C90.1589 99.5838 90.9458 100.611 91.9087 101.457C92.8701 102.305 93.9906 102.953 95.2048 103.363C96.4176 103.774 97.6969 103.951 98.9754 103.885L98.9974 103.942Z" fill="white"/>
</g>
<path d="M75.6984 96.3129C75.8461 96.121 78.2561 93.1261 82.011 93.5319C83.8698 93.7661 85.5624 94.7219 86.7242 96.1934" stroke="#805F6B" stroke-width="1.43" stroke-miterlimit="10"/>
</g>
<defs>
<clipPath id="clip0_320_6499">
<rect width="142" height="143" fill="white" transform="translate(9 17)"/>
</clipPath>
</defs>
</svg>
