<svg width="160" height="160" viewBox="0 0 160 160" fill="none" xmlns="http://www.w3.org/2000/svg">
<rect width="160" height="160" rx="80" fill="#648FFF"/>
<g clip-path="url(#clip0_217_8733)">
<path d="M97.1008 116.909C103.022 120.329 136.833 125.966 142.362 137.768C147.89 149.569 11.0724 149.569 16.6007 137.768C22.1289 125.966 63.7625 123.857 61.8616 116.909" fill="#FAC9A6"/>
<path opacity="0.5" d="M63.5688 120.187C69.8276 119.668 76.1167 118.641 81.5675 116.174C85.391 114.439 89.0319 112.324 92.4359 109.862C92.3191 107.373 92.4359 104.879 92.7845 102.413L79.4149 102.69L66.0452 102.413C66.0452 102.413 67.8963 113.754 63.5688 120.187Z" fill="#CEA78E"/>
<path d="M143.341 137.604C137.957 126.108 105.936 120.42 98.4345 116.943C92.5078 119.679 85.2834 121.292 77.4752 121.292C70.6908 121.292 64.3463 120.073 58.9093 117.961C48.3951 121.517 21.5562 127.165 16.656 137.604C13.3011 144.768 10.734 152.278 9 160H151C149.266 152.278 146.698 144.768 143.341 137.604Z" fill="#943F3F"/>
<path d="M54.106 119.743C54.106 119.743 59.7421 116.915 61.0232 112.527L98.2961 111.139C98.2961 111.139 99.5799 116.909 104.721 119.096C104.726 119.102 77.5195 131.131 54.106 119.743Z" fill="#AF6E6E"/>
<path opacity="0.8" d="M41.179 123.74C41.179 123.74 75.9035 144.002 117.144 123.185" stroke="#FAFAFA" stroke-width="3" stroke-linecap="round" stroke-linejoin="round"/>
<path d="M57.8385 79.2282C55.6969 72.5668 50.6224 74.1045 50.1493 74.2655C49.6513 74.3238 44.4052 75.0982 45.3128 82.0371C46.2203 88.976 50.2655 92.8118 54.0534 91.6988C57.9547 91.091 59.9939 85.9229 57.8385 79.2282Z" fill="#EFBF9E"/>
<path d="M101.497 79.4836C103.473 73.3412 108.138 74.7651 108.581 74.9122C109.04 74.965 113.871 75.6838 113.035 82.0815C112.2 88.4792 108.473 92.0069 104.984 90.9827C101.398 90.411 99.5191 85.6592 101.497 79.4836Z" fill="#EFBF9E"/>
<path d="M106.143 68.7393C103.489 39.5098 81.3377 41.1474 79.2487 41.3667C77.1597 41.1474 55.0079 39.5098 52.3544 68.7393C49.6816 98.1437 62.7386 117.345 79.2487 116.29C95.7588 117.345 108.816 98.1354 106.143 68.7393Z" fill="#FAC9A6"/>
<path d="M70.0102 77.4213C70.0489 79.342 69.1995 80.913 68.1121 80.9297C67.0247 80.9463 66.1089 79.4003 66.0701 77.4769C66.0314 75.5534 66.8781 73.9824 67.9682 73.9685C69.0584 73.9547 69.9687 75.4979 70.0102 77.4213Z" fill="#040505"/>
<path d="M67.0579 78.1513C66.8344 77.5695 66.7825 76.9355 66.9085 76.325C67.0177 75.7117 67.2978 75.142 67.7165 74.6818H67.7331C67.1245 75.7287 66.8939 76.9539 67.0801 78.1513H67.0579Z" fill="white"/>
<path d="M90.3191 77.4213C90.2804 79.342 91.1298 80.913 92.2172 80.9296C93.3046 80.9463 94.2177 79.4003 94.2592 77.4768C94.3007 75.5534 93.4485 73.9879 92.3666 73.9685C91.2848 73.9491 90.3606 75.4978 90.3191 77.4213Z" fill="#040505"/>
<path d="M91.4315 78.1513C91.2079 77.5695 91.1561 76.9355 91.2821 76.325C91.3913 75.7123 91.6704 75.1428 92.0872 74.6818H92.1066C91.4971 75.7284 91.2655 76.9536 91.4509 78.1513H91.4315Z" fill="white"/>
<path d="M74.0028 86.2143C73.3332 87.1746 72.6802 88.1294 72.0466 89.0953C71.7312 89.5811 71.4158 90.064 71.1197 90.5581L70.6715 91.2936L70.2454 92.043C70.0987 92.29 69.9687 92.5481 69.8331 92.7979L69.6311 93.1782L69.443 93.564C69.3212 93.8221 69.1801 94.0747 69.0694 94.3384C68.9588 94.6021 68.8453 94.863 68.7264 95.1266C68.2915 96.1952 67.9526 97.3006 67.7137 98.4296C67.6832 97.2462 67.8544 96.0662 68.22 94.9407C68.5871 93.8168 69.0634 92.7319 69.6422 91.7016C70.2256 90.679 70.8851 89.702 71.615 88.7789C72.33 87.8517 73.1294 86.9931 74.0028 86.2143Z" fill="#DBAF91"/>
<path d="M85.9392 85.7619C86.8155 86.5414 87.6177 87.4009 88.3353 88.3293C89.0631 89.2522 89.7198 90.2292 90.2998 91.252C90.8801 92.2819 91.3574 93.3669 91.7248 94.4911C92.0879 95.6172 92.2591 96.7967 92.2311 97.98C91.9917 96.8499 91.6519 95.7435 91.2157 94.6743C91.0995 94.4134 90.9833 94.1497 90.8726 93.886C90.7619 93.6223 90.6236 93.3697 90.4991 93.1116L90.3137 92.7258L90.1117 92.3456C89.9734 92.0958 89.835 91.8376 89.6994 91.5906L89.2733 90.8412L88.8223 90.1057C88.5263 89.6116 88.2136 89.1287 87.8982 88.6429C87.2618 87.6798 86.6116 86.7222 85.9392 85.7619Z" fill="#DBAF91"/>
<path d="M66.9749 57.7786C69.1853 57.0358 71.4499 56.466 73.7482 56.0744C76.0489 55.6635 78.3748 55.4104 80.7097 55.3167C81.8774 55.2862 83.0505 55.2751 84.2209 55.3361C85.3912 55.3912 86.5577 55.5088 87.7155 55.6886C88.8744 55.8677 90.0197 56.1255 91.1437 56.4602C92.2628 56.7987 93.3483 57.24 94.3865 57.7786C93.292 57.404 92.1758 57.0963 91.0441 56.8571C89.9165 56.6244 88.7778 56.4493 87.6325 56.3326C86.4898 56.216 85.3415 56.1494 84.1905 56.1244C83.0395 56.0994 81.8912 56.105 80.7402 56.1494C79.5891 56.1938 78.4381 56.2632 77.2899 56.3575C76.1416 56.4519 74.9906 56.5796 73.8451 56.7128C71.5522 57.0015 69.2622 57.3567 66.9749 57.7786Z" fill="#DBAF91"/>
<path d="M73.7454 62.1279C74.8296 61.6802 75.9558 61.3427 77.1071 61.1204C78.2595 60.8833 79.4291 60.7404 80.6045 60.693C81.7862 60.6472 82.9695 60.7254 84.1351 60.9261C85.3042 61.1258 86.4285 61.5327 87.4553 62.1279C86.3397 61.8504 85.2034 61.6647 84.0576 61.5728C82.92 61.4997 81.7795 61.4849 80.6405 61.5284L79.7827 61.5617L78.925 61.62C78.3522 61.6533 77.7823 61.7116 77.2095 61.7643C76.0557 61.8726 74.9075 62.0003 73.7454 62.1279Z" fill="#DBAF91"/>
<path d="M59.4821 49.996C59.4821 49.996 66.6124 59.6938 75.0985 59.6938C79.8022 59.6938 75.0985 51.4892 75.0985 51.4892C75.0985 51.4892 81.7916 61.9309 88.731 61.6839C95.6704 61.4368 89.7243 51.4892 89.7243 51.4892C89.7243 51.4892 94.9289 62.1807 101.373 61.6839C107.817 61.187 102.364 50.7426 102.364 50.7426C102.364 50.7426 105.338 61.9309 111.536 60.4404C117.734 58.9499 110.05 49.2493 110.05 49.2493C110.05 49.2493 115.255 54.2231 117.485 53.9678C119.715 53.7124 119.715 47.0039 112.031 43.7731C112.031 43.7731 119.715 43.5233 119.964 39.793C120.24 35.5686 115.26 34.0753 103.852 35.3188C103.852 35.3188 113.26 31.3386 111.29 27.858C109.32 24.3775 100.878 29.3513 100.878 29.3513C100.878 29.3513 109.306 24.6328 104.347 20.8969C100.28 17.8438 79.0635 17.9132 66.1642 33.3287C66.1642 33.3287 92.9339 19.1566 89.7133 17.1665C87.4361 15.7621 55.4037 22.9397 50.5478 36.5622C44.599 53.2156 49.0592 62.6692 50.985 74.0129L59.4821 49.996Z" fill="#EDEDED"/>
<path d="M50.8079 51.986C50.8079 51.986 49.3193 88.5375 53.5333 105.696C56.7041 118.608 65.9262 122.105 65.9262 122.105C65.9262 122.105 87.7404 130.56 99.8871 116.884C103.384 112.946 108.81 92.2678 106.331 55.2196L97.408 51.4892C97.408 51.4892 98.8938 69.6414 103.357 71.8785C103.357 71.8785 102.045 104.319 96.4147 108.18C91.7109 111.414 99.6381 93.2615 90.4658 93.5113C81.2936 93.7611 81.0584 94.0081 81.0584 94.0081C81.0584 94.0081 64.6977 91.2742 64.9467 97.7385C65.1958 104.203 66.9306 108.43 64.6977 108.43C62.4648 108.43 54.2886 103.209 55.7745 69.1418C55.7745 69.1418 60.4782 67.4015 60.4782 55.4666C60.4727 39.7708 50.8079 51.986 50.8079 51.986Z" fill="#EDEDED"/>
<path d="M78.1421 107.708C78.1421 107.708 81.4375 108.935 83.7727 107.331" stroke="#DBDBDB" stroke-width="2" stroke-miterlimit="10" stroke-linecap="round"/>
<path d="M74.1965 101.599C75.0902 102.005 79.5699 103.928 84.0716 102.077C85.1989 101.611 86.2343 100.948 87.129 100.117" stroke="#DBDBDB" stroke-width="3" stroke-miterlimit="10" stroke-linecap="round"/>
<path d="M80.7457 78.1235C81.2714 81.9242 81.7953 85.7239 82.3173 89.5228C81.6899 89.9383 80.9667 90.1855 80.2169 90.2409C79.467 90.2963 78.7156 90.158 78.0342 89.8392" stroke="#DBAF91" stroke-width="3" stroke-miterlimit="10" stroke-linecap="round"/>
<path d="M84.896 72.467C85.1711 71.8015 85.5441 71.1812 86.0028 70.6268C86.4575 70.0629 86.9756 69.5534 87.5467 69.1085C88.7418 68.1612 90.1817 67.5758 91.697 67.421C91.8907 67.396 92.0872 67.4043 92.2836 67.396C92.6758 67.3905 93.0677 67.4221 93.454 67.4904C93.6467 67.5184 93.8379 67.5564 94.0268 67.6042C94.7707 67.8009 95.4767 68.1208 96.1158 68.5506C97.3298 69.3706 98.2789 70.5282 98.8467 71.8813C97.721 71.1895 96.539 70.5943 95.3134 70.1022C94.7585 69.9002 94.1847 69.7551 93.6007 69.6692C93.3175 69.6276 93.0319 69.6053 92.7457 69.6026C92.6038 69.5929 92.4614 69.5929 92.3196 69.6026C92.1771 69.6036 92.0349 69.6129 91.8935 69.6303C90.699 69.759 89.534 70.0854 88.4459 70.5962C87.2292 71.1539 86.0441 71.7784 84.896 72.467Z" fill="#EDEDED"/>
<path d="M61.0703 72.467C61.3443 71.8009 61.7175 71.1805 62.1771 70.6268C62.6304 70.0615 63.1486 69.5519 63.721 69.1085C64.9158 68.1607 66.3558 67.5752 67.8713 67.421C68.065 67.396 68.2642 67.4043 68.4579 67.396C68.6537 67.3913 68.8495 67.3978 69.0445 67.4154C69.2404 67.4291 69.4353 67.4541 69.6283 67.4904C69.8212 67.5203 70.0123 67.5601 70.2011 67.6097C70.946 67.8062 71.653 68.1261 72.2929 68.5562C73.5068 69.3755 74.4552 70.5333 75.021 71.8869C73.8929 71.1926 72.7081 70.5956 71.4794 70.1022C70.9236 69.9001 70.3488 69.7551 69.7639 69.6692C69.4817 69.6277 69.1969 69.6054 68.9117 69.6026C68.7698 69.5929 68.6275 69.5929 68.4856 69.6026C68.3431 69.6034 68.2009 69.6127 68.0595 69.6303C66.8641 69.759 65.6982 70.0854 64.6092 70.5962C63.3962 71.1542 62.2148 71.7787 61.0703 72.467Z" fill="#EDEDED"/>
<path d="M55.7495 69.1197C56.103 68.8357 56.4359 68.5268 56.7456 68.1954C56.8978 68.0261 57.0583 67.8706 57.2022 67.6958C57.346 67.5209 57.4789 67.3488 57.6172 67.1684C58.1421 66.4447 58.576 65.6588 58.9093 64.8286C59.5567 63.1433 59.9935 61.3841 60.2098 59.5911C60.4963 57.7955 60.5678 55.972 60.4228 54.1593C60.3511 53.2515 60.2152 52.35 60.0161 51.4615C59.8083 50.5731 59.5307 49.7025 59.186 48.858C59.1845 48.8517 59.1852 48.845 59.188 48.8391C59.1909 48.8333 59.1957 48.8286 59.2016 48.8259C59.2076 48.8233 59.2143 48.8228 59.2205 48.8246C59.2268 48.8264 59.2322 48.8304 59.2358 48.8358C59.6154 49.6719 59.9281 50.5369 60.171 51.4226C60.4095 52.3118 60.5833 53.2172 60.6912 54.1316C60.8928 55.9653 60.877 57.8166 60.6442 59.6466C60.4477 61.4619 60.1904 63.3326 59.4129 65.0479C58.668 66.7744 57.3934 68.2173 55.7744 69.1668C55.769 69.1714 55.7621 69.1738 55.7551 69.1738C55.748 69.1738 55.7412 69.1714 55.7357 69.1668C55.7328 69.163 55.7309 69.1586 55.73 69.1539C55.7291 69.1492 55.7294 69.1443 55.7307 69.1397C55.7321 69.1351 55.7345 69.1309 55.7377 69.1275C55.741 69.124 55.7451 69.1213 55.7495 69.1197Z" fill="#C4C4C4"/>
<path d="M57.8608 45.8493C58.4916 47.5532 59.3378 49.1688 60.3787 50.6566C61.4153 52.1361 62.6403 53.4732 64.0227 54.6339C65.4187 55.7664 66.9338 56.7427 68.541 57.5455C69.3407 57.9535 70.1597 58.3227 70.9953 58.6557C71.4131 58.8251 71.8253 58.9805 72.2653 59.1276C72.7052 59.2747 73.1258 59.4051 73.5574 59.555C73.5642 59.558 73.5698 59.5632 73.5733 59.5697C73.5768 59.5763 73.578 59.5838 73.5768 59.5911C73.5744 59.5972 73.5702 59.6023 73.5647 59.6058C73.5593 59.6093 73.5528 59.611 73.5463 59.6105C71.7262 59.3504 69.9546 58.821 68.2892 58.0396C66.6275 57.2422 65.0905 56.2062 63.7266 54.9642C62.351 53.7405 61.1416 52.3408 60.1297 50.8009C59.1421 49.2606 58.3563 47.5992 57.7916 45.8576C57.7903 45.8541 57.7897 45.8505 57.7898 45.8468C57.7899 45.843 57.7908 45.8394 57.7923 45.8361C57.7939 45.8327 57.7961 45.8297 57.7988 45.8272C57.8015 45.8247 57.8047 45.8228 57.8082 45.8215C57.81 45.8181 57.8125 45.815 57.8155 45.8125C57.8185 45.81 57.822 45.8081 57.8257 45.8069C57.8294 45.8058 57.8333 45.8054 57.8372 45.8057C57.8411 45.8061 57.8449 45.8072 57.8483 45.809C57.8518 45.8109 57.8549 45.8133 57.8573 45.8164C57.8598 45.8194 57.8617 45.8228 57.8629 45.8266C57.864 45.8303 57.8644 45.8342 57.8641 45.8381C57.8637 45.842 57.8626 45.8458 57.8608 45.8493Z" fill="#C4C4C4"/>
<g opacity="0.8">
<path opacity="0.8" d="M69.9687 115.361C68.7223 115.194 67.4965 114.898 66.3109 114.478C65.1238 114.047 63.9865 113.488 62.9187 112.813C61.8423 112.142 60.8589 111.332 59.994 110.403C59.1372 109.469 58.4221 108.413 57.8718 107.27L57.9078 107.248C58.6262 108.267 59.4247 109.226 60.2956 110.118C61.1567 111.009 62.0977 111.819 63.1068 112.538C64.1351 113.238 65.2364 113.823 66.3911 114.284C67.5511 114.753 68.7566 115.1 69.9881 115.319L69.9687 115.361Z" fill="#DBDBDB"/>
</g>
<path d="M79.5531 24.5412C80.4109 24.1138 81.2631 23.7252 82.1042 23.3089C82.9454 22.8926 83.8031 22.5234 84.6221 22.0654C86.2655 21.1398 87.8045 20.0389 89.2124 18.7819C89.2178 18.7774 89.2247 18.775 89.2318 18.775C89.2388 18.775 89.2457 18.7774 89.2511 18.7819C89.2552 18.7876 89.2574 18.7944 89.2574 18.8014C89.2574 18.8083 89.2552 18.8151 89.2511 18.8208C87.9423 20.21 86.4631 21.427 84.849 22.4429C84.0531 22.9775 83.2092 23.4366 82.3283 23.814C81.4406 24.184 80.5116 24.445 79.5614 24.5912C79.5545 24.592 79.5475 24.5902 79.5419 24.5861C79.5362 24.582 79.5324 24.5759 79.531 24.569C79.5313 24.5626 79.5337 24.5565 79.5376 24.5516C79.5416 24.5466 79.547 24.543 79.5531 24.5412Z" fill="#C4C4C4"/>
<g opacity="0.8">
<path opacity="0.8" d="M97.9199 60.9428C99.0204 61.3018 100.187 61.4109 101.334 61.262C101.895 61.188 102.438 61.0161 102.939 60.754C103.428 60.5065 103.845 60.1353 104.148 59.6771C104.424 59.2054 104.577 58.672 104.594 58.1256C104.615 57.5662 104.564 57.0064 104.442 56.4602C104.33 55.9054 104.16 55.364 103.935 54.8449C103.706 54.3315 103.42 53.8463 103.08 53.3988L103.562 53.1684C103.786 54.111 104.135 55.0193 104.599 55.869C105.051 56.7292 105.615 57.5254 106.276 58.2366C106.958 58.9286 107.772 59.4753 108.669 59.8437C109.581 60.2166 110.552 60.4234 111.536 60.4543C110.537 60.5239 109.534 60.3966 108.584 60.0796C107.618 59.7584 106.734 59.2309 105.991 58.5336C105.621 58.1829 105.284 57.7992 104.984 57.3873C104.685 56.9709 104.43 56.5546 104.154 56.1188C103.643 55.2377 103.261 54.2869 103.022 53.2961L102.718 52.0499L103.504 53.0657C103.877 53.5444 104.188 54.0685 104.43 54.6256C104.551 54.9037 104.653 55.1892 104.738 55.4805C104.823 55.758 104.898 56.0578 104.956 56.352C105.085 56.9478 105.132 57.5586 105.094 58.1672C105.079 58.7959 104.884 59.4068 104.532 59.9274C104.18 60.4479 103.687 60.8562 103.111 61.1038C102.561 61.3542 101.972 61.5064 101.37 61.5534C100.188 61.6287 99.0051 61.4194 97.9199 60.9428Z" fill="#C4C4C4"/>
</g>
</g>
<defs>
<clipPath id="clip0_217_8733">
<rect width="142" height="143" fill="white" transform="translate(9 17)"/>
</clipPath>
</defs>
</svg>
