<svg width="160" height="160" viewBox="0 0 160 160" fill="none" xmlns="http://www.w3.org/2000/svg">
<g clip-path="url(#clip0_217_9761)">
<rect width="160" height="160" rx="80" fill="#648FFF"/>
<g clip-path="url(#clip1_217_9761)">
<path d="M98.0656 122.663C90.0362 118.349 92.5894 104.057 92.5894 104.057L79.4509 104.313L66.3123 104.057C66.3123 104.057 68.8683 118.349 60.8389 122.663" fill="#FAC9A6"/>
<path d="M98.0655 122.663C104.319 126.026 140.034 131.561 145.875 143.159C151.715 154.757 7.20246 154.755 13.0267 143.159C18.8509 131.564 62.8346 129.489 60.8388 122.663" fill="#FAC9A6"/>
<path opacity="0.5" d="M63.8787 121.521C70.0292 121.013 76.2123 120.004 81.5526 117.58C85.3109 115.876 88.8891 113.798 92.2331 111.376C92.1183 108.931 92.2331 106.48 92.5757 104.057L79.4372 104.329L66.2986 104.057C66.2986 104.057 68.1313 115.199 63.8787 121.521Z" fill="#CEA78E"/>
<path d="M146.911 142.999C141.223 131.703 107.397 126.113 99.4712 122.696C93.2174 125.385 85.5795 126.972 77.3326 126.972C70.1679 126.972 63.4654 125.775 57.7227 123.699C46.6126 127.19 18.2419 132.742 13.0756 142.999C7.20516 154.678 5 165 5 165H155.011C155.011 165 152.792 154.678 146.911 142.999Z" fill="#087CA8"/>
<path d="M57.7227 123.697C57.7227 123.697 62.5055 121.395 63.5958 117.85L95.2403 116.721C95.2403 116.721 96.328 121.398 100.697 123.17C100.697 123.176 77.599 132.925 57.7227 123.697Z" fill="#55BEC5"/>
<path d="M58.4541 73.8143C56.3332 67.2122 51.3084 68.742 50.8407 68.9056C50.3486 68.9629 45.1551 69.7374 46.0524 76.6149C46.9497 83.4924 50.9467 87.283 54.7099 86.184C58.571 85.5622 60.5913 80.4573 58.4541 73.8143Z" fill="#EFBF9E"/>
<path d="M101.921 73.8143C104.042 67.2122 109.067 68.742 109.534 68.9056C110.029 68.9629 115.223 69.7374 114.325 76.6149C113.428 83.4924 109.431 87.283 105.665 86.184C101.807 85.5622 99.7866 80.4573 101.921 73.8143Z" fill="#EFBF9E"/>
<path d="M106.302 63.427C103.672 34.4826 81.732 36.1051 79.6547 36.3233C77.5854 36.1051 55.6426 34.4826 53.0078 63.427C50.3649 92.546 63.294 111.561 79.6547 110.517C96.0071 111.561 108.947 92.546 106.302 63.427Z" fill="#FAC9A6"/>
<path d="M106.612 79.3392C114.298 60.6265 110.962 38.3004 110.962 38.3004C112.893 33.8418 112.893 30.3021 112.659 28.1887C112.267 24.6572 111.027 21.1448 110.293 21.2294C109.676 21.3003 109.964 23.8827 108.817 27.3624C108.042 29.6789 106.843 31.8301 105.282 33.7054C108.412 26.2007 108.254 21.4939 107.941 19.2523C107.762 17.9515 107.24 14.1664 105.951 14.0137C105.737 13.9979 105.524 14.0587 105.35 14.1855C95.216 25.2953 92.5568 28.0251 92.4534 27.9351C92.3012 27.796 98.6692 21.832 97.2607 19.2659C96.0807 17.1252 89.9193 18.1506 86.5775 19.1923C80.7479 21.0085 75.2227 25.3662 75.5327 25.1753C81.2781 20.6512 82.2433 18.9469 81.8844 18.2815C80.979 16.6016 70.41 19.2086 62.4132 25.7916C60.1847 27.6285 58.1919 29.7352 56.4802 32.0638C38.0966 39.6149 52.1297 80.6536 52.1297 80.6536H54.1336V65.5515C54.1336 65.5515 60.8171 62.279 60.4854 45.5243C60.4854 45.5243 77.1968 50.7765 97.2526 45.5243C97.2526 45.5243 94.9115 62.5954 104.594 64.237L104.279 79.6719L106.612 79.3392Z" fill="#BD9170"/>
<path d="M70.3446 73.2634C70.3826 75.1532 69.5506 76.6967 68.4793 76.7131C67.408 76.7294 66.5134 75.2105 66.4726 73.3206C66.4318 71.4308 67.2693 69.8873 68.3379 69.871C69.4065 69.8546 70.3038 71.3763 70.3446 73.2634Z" fill="#040505"/>
<path d="M90.2972 73.2634C90.2591 75.1532 91.0938 76.6967 92.1624 76.7131C93.231 76.7294 94.131 75.2105 94.1691 73.3206C94.2072 71.4308 93.3751 69.8873 92.3065 69.871C91.238 69.8546 90.3434 71.3763 90.2972 73.2634Z" fill="#040505"/>
<path d="M91.3848 73.9915C91.1651 73.4199 91.1141 72.797 91.2379 72.1971C91.3445 71.5944 91.6199 71.0344 92.0319 70.5828H92.0482C91.4532 71.6075 91.2267 72.8059 91.4065 73.9779L91.3848 73.9915Z" fill="white"/>
<path d="M67.457 73.9915C67.2365 73.4202 67.1846 72.7973 67.3074 72.1971C67.414 71.5944 67.6894 71.0344 68.1014 70.5828H68.1177C67.515 71.6087 67.2817 72.8111 67.457 73.9888V73.9915Z" fill="white"/>
<g opacity="0.3">
<path opacity="0.3" d="M106.141 18.0959C106.236 18.7013 106.302 19.3067 106.34 19.9176C106.378 20.5284 106.408 21.1366 106.413 21.7501C106.421 22.9803 106.342 24.2096 106.179 25.4289C106.011 26.6478 105.823 27.8968 105.334 29.0503C105.203 29.3367 105.062 29.6203 104.928 29.8984C104.863 30.0405 104.789 30.1788 104.708 30.313C104.627 30.4466 104.54 30.5857 104.453 30.7084C104.114 31.2345 103.711 31.7163 103.254 32.1428L103.164 32.0801C103.569 30.8993 103.98 29.8139 104.325 28.6822C104.415 28.4095 104.485 28.115 104.578 27.8368L104.719 27.4196L104.847 26.9942C104.934 26.7215 105.04 26.4324 105.119 26.1461L105.339 25.2789C105.584 24.1078 105.765 22.9244 105.883 21.7338C106.007 20.5317 106.061 19.3234 106.043 18.115L106.141 18.0959Z" fill="#351F19"/>
</g>
<g opacity="0.3">
<path opacity="0.3" d="M50.0549 48.4339C50.0547 47.1465 50.1455 45.8606 50.3268 44.5861C50.509 43.2991 50.8262 42.0349 51.2731 40.8147C51.3302 40.6619 51.3818 40.5065 51.4471 40.3538L51.6483 39.9038C51.7734 39.5957 51.9447 39.3093 52.0969 39.0148C52.4318 38.4229 52.8681 37.8949 53.3858 37.455L53.5816 37.2886C53.6523 37.2395 53.7284 37.1932 53.7991 37.1468C53.9409 37.0466 54.0889 36.9555 54.2423 36.8741L54.7209 36.6669C54.8813 36.6096 55.0553 36.5769 55.2212 36.536C55.8844 36.3941 56.5751 36.4588 57.2006 36.7214L57.1843 36.8005C56.5819 36.7628 55.9784 36.8561 55.4153 37.0741C54.8521 37.292 54.3425 37.6294 53.9214 38.0631C53.0593 38.9281 52.3634 39.945 51.8685 41.0628C51.3628 42.2175 50.9791 43.4221 50.7238 44.657C50.45 45.9022 50.2565 47.1638 50.1447 48.4339H50.0549Z" fill="#603930"/>
</g>
<path opacity="0.1" d="M76.2341 47.8122C72.6461 46.2905 69.2178 44.4151 65.9995 42.2136C64.393 41.1331 62.9451 39.8324 61.698 38.3494C59.8091 36.1507 58.3498 33.6149 57.3964 30.8747C57.1154 31.271 56.8372 31.6674 56.5616 32.0637C38.5533 39.6148 52.3009 80.6535 52.3009 80.6535H54.2668V65.5514C54.2668 65.5514 60.8143 62.2789 60.4853 45.5242C60.4853 45.5242 66.7826 47.5285 76.2341 47.8122Z" fill="#351F19"/>
<path d="M80.7504 73.3752C81.2634 77.1094 81.7782 80.8426 82.2948 84.575C81.6782 84.9844 80.9672 85.2282 80.2297 85.2831C79.4923 85.338 78.7531 85.2022 78.083 84.8886" stroke="#DBAF91" stroke-width="3" stroke-miterlimit="10" stroke-linecap="round"/>
<path d="M77.928 101.082C77.928 101.082 81.1664 102.287 83.4613 100.711" stroke="#DBAF91" stroke-width="2" stroke-miterlimit="10" stroke-linecap="round"/>
<path d="M74.3225 93.7132C75.2008 94.1113 79.6057 96.0012 84.0269 94.1823C85.1354 93.7261 86.1539 93.0751 87.0341 92.2597" stroke="#DBAF91" stroke-width="3" stroke-miterlimit="10" stroke-linecap="round"/>
<path opacity="0.8" d="M41.8977 128.556C41.8977 128.556 76.0247 148.463 116.55 128.011" stroke="#55BEC5" stroke-width="3" stroke-linecap="round" stroke-linejoin="round"/>
<path d="M61.3499 66.9885C61.6424 66.3473 62.0302 65.7543 62.5 65.2296C62.969 64.6929 63.4992 64.2132 64.0798 63.8007C65.2903 62.9184 66.7272 62.4017 68.2209 62.3117C68.4129 62.3008 68.6054 62.3008 68.7974 62.3117C68.9902 62.3131 69.1827 62.3268 69.3738 62.3526C69.5649 62.3745 69.7547 62.4073 69.9421 62.4508C70.1302 62.4872 70.3163 62.5336 70.4995 62.5899C71.2223 62.813 71.9032 63.1549 72.5143 63.6016C73.6759 64.4545 74.5642 65.6287 75.0703 66.9804C73.9927 66.2566 72.8567 65.6244 71.6742 65.0905C71.136 64.8716 70.5778 64.7063 70.0074 64.5969C69.7316 64.5454 69.4527 64.5126 69.1726 64.4988C69.0336 64.4828 68.8937 64.4765 68.7539 64.4797C68.6135 64.4715 68.4728 64.4715 68.3324 64.4797C67.1542 64.5614 65.9975 64.8378 64.9091 65.2978C63.6931 65.7964 62.5049 66.3608 61.3499 66.9885Z" fill="#A57E63"/>
<path d="M84.8589 67.2722C85.1292 66.6192 85.4959 66.0106 85.9465 65.4669C86.3922 64.9108 86.9025 64.4101 87.4665 63.9752C88.6402 63.0427 90.0554 62.4665 91.5451 62.3145C91.7354 62.2899 91.9285 62.2981 92.1215 62.2926C92.3139 62.2854 92.5065 62.2917 92.698 62.3117C92.8904 62.3244 93.0819 62.3481 93.2717 62.3826C93.4593 62.4236 93.6523 62.4426 93.8345 62.4999C94.5649 62.6954 95.2583 63.0095 95.8874 63.4298C97.0814 64.2344 98.0143 65.372 98.5711 66.7022C97.4582 66.0186 96.2893 65.4311 95.0771 64.946C94.5306 64.7488 93.9659 64.6063 93.3913 64.5206C93.1137 64.4821 92.834 64.4612 92.5538 64.4579C92.4144 64.4484 92.2745 64.4484 92.1351 64.4579C91.9937 64.4579 91.8632 64.4579 91.7137 64.4852C90.5398 64.6116 89.395 64.9323 88.3257 65.4342C87.138 65.9839 85.9807 66.5974 84.8589 67.2722Z" fill="#A57E63"/>
<path opacity="0.4" d="M100.708 69.4428V78.2183C100.708 78.5007 100.595 78.7712 100.396 78.9706C100.197 79.1699 99.9267 79.2819 99.6452 79.2819H84.8317C84.5502 79.2819 84.2802 79.1699 84.0809 78.9706C83.8816 78.7712 83.7693 78.5007 83.7686 78.2183V68.9138C83.7686 68.7738 83.7961 68.6351 83.8495 68.5058C83.9029 68.3764 83.9812 68.2588 84.08 68.1598C84.1787 68.0608 84.2959 67.9823 84.4249 67.9287C84.5539 67.8751 84.6921 67.8475 84.8317 67.8475H99.6452C99.7848 67.8475 99.923 67.8751 100.052 67.9287C100.181 67.9823 100.298 68.0608 100.397 68.1598C100.496 68.2588 100.574 68.3764 100.627 68.5058C100.681 68.6351 100.708 68.7738 100.708 68.9138V69.4428Z" fill="#EFEFEF"/>
<path opacity="0.4" d="M76.5684 69.2737V77.7629C76.5684 77.939 76.5338 78.1133 76.4666 78.276C76.3993 78.4386 76.3007 78.5863 76.1765 78.7107C76.0522 78.8351 75.9047 78.9336 75.7424 79.0008C75.5801 79.0679 75.4062 79.1022 75.2307 79.1019H60.9664C60.6121 79.1019 60.2723 78.9609 60.0214 78.7099C59.7706 78.4589 59.6294 78.1183 59.6287 77.7629V69.0092C59.6287 68.6534 59.7696 68.3121 60.0205 68.0605C60.2714 67.8089 60.6116 67.6675 60.9664 67.6675H75.2307C75.4063 67.6675 75.5803 67.7022 75.7426 67.7697C75.9049 67.8371 76.0524 67.9359 76.1766 68.0605C76.3008 68.1851 76.3994 68.333 76.4666 68.4958C76.5338 68.6586 76.5684 68.833 76.5684 69.0092V69.2737Z" fill="#EFEFEF"/>
<path d="M76.6582 73.5661C77.8833 73.0031 79.2249 72.7422 80.5709 72.8052C81.6424 72.8569 82.694 73.1152 83.668 73.5661" stroke="#504F4F" stroke-width="2" stroke-miterlimit="10"/>
<path d="M100.697 69.4128V77.6593C100.697 77.8687 100.656 78.076 100.576 78.2694C100.496 78.4628 100.379 78.6385 100.231 78.7864C100.084 78.9343 99.9082 79.0515 99.7152 79.1314C99.5222 79.2113 99.3155 79.2522 99.1067 79.2519H85.3482C85.1395 79.2522 84.9327 79.2113 84.7397 79.1314C84.5467 79.0515 84.3714 78.9343 84.2236 78.7864C84.0759 78.6385 83.9587 78.4628 83.8787 78.2694C83.7987 78.076 83.7576 77.8687 83.7576 77.6593V69.4128C83.7576 69.2033 83.7987 68.9959 83.8786 68.8023C83.9586 68.6088 84.0757 68.4329 84.2235 68.2848C84.3712 68.1366 84.5465 68.0191 84.7395 67.9389C84.9325 67.8588 85.1393 67.8175 85.3482 67.8175H99.1067C99.3156 67.8175 99.5224 67.8588 99.7154 67.9389C99.9084 68.0191 100.084 68.1366 100.231 68.2848C100.379 68.4329 100.496 68.6088 100.576 68.8023C100.656 68.9959 100.697 69.2033 100.697 69.4128V69.4128Z" stroke="#504F4F" stroke-width="2" stroke-miterlimit="10"/>
<path d="M76.6744 69.2738V77.5203C76.6744 77.7297 76.6332 77.937 76.5533 78.1304C76.4733 78.3238 76.3561 78.4995 76.2083 78.6474C76.0606 78.7953 75.8852 78.9126 75.6923 78.9924C75.4993 79.0723 75.2925 79.1132 75.0837 79.1129H61.3253C61.1165 79.1132 60.9097 79.0723 60.7168 78.9924C60.5238 78.9126 60.3484 78.7953 60.2007 78.6474C60.0529 78.4995 59.9357 78.3238 59.8558 78.1304C59.7758 77.937 59.7346 77.7297 59.7346 77.5203V69.2738C59.7346 68.8507 59.9022 68.445 60.2005 68.1458C60.4988 67.8466 60.9034 67.6785 61.3253 67.6785H75.0837C75.5056 67.6785 75.9102 67.8466 76.2085 68.1458C76.5068 68.445 76.6744 68.8507 76.6744 69.2738V69.2738Z" stroke="#504F4F" stroke-width="2" stroke-miterlimit="10"/>
</g>
</g>
<defs>
<clipPath id="clip0_217_9761">
<rect width="160" height="160" rx="80" fill="white"/>
</clipPath>
<clipPath id="clip1_217_9761">
<rect width="150" height="151" fill="white" transform="translate(5 14)"/>
</clipPath>
</defs>
</svg>
