<svg width="160" height="160" viewBox="0 0 160 160" fill="none" xmlns="http://www.w3.org/2000/svg">
<rect width="160" height="160" rx="80" fill="#648FFF"/>
<g clip-path="url(#clip0_217_9410)">
<path d="M46.1346 42.0805C46.1346 42.0805 34.4942 53.6241 35.2676 64.7868C36.041 75.9496 32.6408 84.3498 27.016 89.3358C21.3913 94.3217 21.6331 105.019 27.0385 111.252C27.0385 111.252 24.0743 104.333 27.4716 95.9301C27.4716 95.9301 22.5078 124.836 51.1097 128.366C51.1097 128.366 50.0832 127.928 47.0121 119.489C47.0121 119.489 48.5645 127.531 66.066 128.8C83.5674 130.07 92.3477 105.992 84.0877 80.0862C75.8277 54.18 59.4259 47.216 59.4259 47.216L46.1346 42.0805Z" fill="#341F15"/>
<path d="M126.771 66.5759C126.771 66.5759 138.021 75.2018 134.5 85.3939C130.979 95.5859 120.894 99.3529 127.947 113.611C135 127.869 121.397 131.504 121.397 131.504C121.397 131.504 88.4696 129.308 92.5025 96.2321C96.5355 63.1559 113.595 62.1429 113.595 62.1429L126.771 66.5759Z" fill="#341F15"/>
<path d="M78.0186 26.784C78.0186 26.784 90.9555 20.9487 101.15 26.3946C111.345 31.8405 118.008 53.6241 127.415 62.188C136.823 70.752 144.135 80.9214 138.645 90.6479C133.155 100.374 127.806 99.5363 133.302 113.154C138.797 126.771 115.82 130.022 120.514 140.135C120.514 140.135 108.598 117.824 112.127 98.3737C115.657 78.9236 105.853 32.6277 90.1737 34.1769L76.0583 33.4009L78.0186 26.784Z" fill="#472A1A"/>
<path d="M100.214 120.242C91.67 115.648 94.3895 100.431 94.3895 100.431L80.4064 100.713L66.4232 100.431C66.4232 100.431 69.14 115.648 60.5959 120.242" fill="#FAC9A6"/>
<path opacity="0.5" d="M62.8235 118.862C69.6336 118.829 76.3712 117.458 82.6564 114.827C86.7105 113.121 90.5307 110.902 94.0241 108.224C93.902 105.621 94.0244 103.011 94.3897 100.431L80.4065 100.713L66.4233 100.431C66.8306 102.663 66.9647 104.938 66.8227 107.203C66.6821 109.435 66.4318 112.827 64.4434 116.424C63.9699 117.279 63.4281 118.095 62.8235 118.862Z" fill="#CEA78E"/>
<mask id="mask0_217_9410" style="mask-type:alpha" maskUnits="userSpaceOnUse" x="0" y="0" width="160" height="160">
<circle cx="80" cy="80" r="80" fill="#D9D9D9"/>
</mask>
<g mask="url(#mask0_217_9410)">
<path d="M143.342 139.339C137.959 128.733 105.937 123.484 98.4338 120.276C92.5109 122.801 85.2831 124.288 77.4759 124.288C70.6924 124.288 64.3477 123.16 58.9142 121.215C48.3987 124.494 21.5489 129.709 16.6609 139.339C13.3177 145.906 10.7468 152.84 9 160.003H151C149.256 152.84 146.686 145.905 143.342 139.339Z" fill="#55BEC5"/>
</g>
<path d="M57.2773 121.345C57.2773 121.345 62.3706 118.905 63.5321 115.138L97.2104 113.938C97.2104 113.938 98.3831 118.899 103.018 120.781C103.018 120.781 78.4321 131.165 57.2773 121.345Z" fill="#087CA8"/>
<path d="M58.0591 68.2322C55.8092 61.2005 50.4657 62.8286 49.9539 62.9979C49.4279 63.06 43.8988 63.8839 44.855 71.2063C45.8168 78.5738 50.0748 82.5665 54.0712 81.3927C58.1829 80.7408 60.3315 75.3034 58.0591 68.2322Z" fill="#EFBF9E"/>
<path d="M104.32 68.2322C106.57 61.2005 111.914 62.8286 112.425 62.9979C112.951 63.06 118.478 63.8839 117.524 71.2063C116.562 78.5738 112.302 82.5665 108.308 81.3927C104.196 80.7408 102.039 75.3034 104.32 68.2322Z" fill="#EFBF9E"/>
<path d="M108.983 57.171C106.171 26.3551 82.8279 28.0791 80.6286 28.3134C78.4265 28.0791 55.0753 26.3551 52.277 57.171C49.4618 88.1732 63.2284 108.422 80.6286 107.307C98.0344 108.422 111.798 88.1732 108.983 57.171Z" fill="#FAC9A6"/>
<path d="M70.3466 67.6368C70.3916 69.7079 69.4776 71.3982 68.3048 71.4151C67.132 71.432 66.1505 69.7672 66.1083 67.6989C66.0662 65.6306 66.9774 63.9347 68.1501 63.9178C69.3229 63.9009 70.3044 65.5657 70.3466 67.6368Z" fill="#040505"/>
<path d="M67.1658 68.4325C66.9307 67.8016 66.8781 67.1169 67.0139 66.4573C67.1331 65.7986 67.4309 65.1855 67.8745 64.6853H67.8914C67.2381 65.8082 66.9899 67.1223 67.1883 68.4071L67.1658 68.4325Z" fill="white"/>
<path d="M91.6896 67.6368C91.6475 69.7079 92.5615 71.3982 93.7314 71.4151C94.9014 71.432 95.8857 69.7672 95.9307 67.6989C95.9757 65.6306 95.0589 63.9347 93.8889 63.9178C92.719 63.9009 91.7318 65.5657 91.6896 67.6368Z" fill="#040505"/>
<path d="M92.8877 68.4325C92.6526 67.8016 92.6 67.1169 92.7358 66.4573C92.8528 65.7984 93.1498 65.185 93.5936 64.6853H93.6133C92.9606 65.8084 92.7114 67.122 92.9074 68.4071L92.8877 68.4325Z" fill="white"/>
<path d="M81.7901 68.029C82.3376 72.0038 82.885 75.9787 83.4325 79.9536C82.7764 80.3886 82.02 80.6476 81.2357 80.7059C80.4514 80.7642 79.6653 80.6198 78.9524 80.2865" stroke="#DBAF91" stroke-width="3" stroke-miterlimit="10" stroke-linecap="round"/>
<path d="M78.7837 98.0662C78.7837 98.0662 82.2317 99.3501 84.6756 97.6711" stroke="#DBAF91" stroke-width="2" stroke-miterlimit="10" stroke-linecap="round"/>
<path d="M74.9475 90.5463C75.8812 90.9696 80.5723 92.9843 85.2746 91.0458C86.4535 90.5593 87.5364 89.8656 88.4723 88.9972" stroke="#DBAF91" stroke-width="3" stroke-miterlimit="10" stroke-linecap="round"/>
<path d="M61.2175 61.2653C61.5757 60.6304 62.0102 60.0419 62.5112 59.5131C63.0116 58.9723 63.5668 58.4853 64.1677 58.0599C65.3985 57.1591 66.8455 56.6021 68.361 56.4459C69.1346 56.378 69.914 56.4342 70.6699 56.6123C71.4144 56.7953 72.126 57.0932 72.7792 57.4955C74.0317 58.2825 75.0697 59.3695 75.7997 60.6587C74.7137 59.7944 73.5288 59.0631 72.2702 58.4803C71.6702 58.2214 71.0428 58.032 70.4 57.916C69.7679 57.8126 69.1256 57.788 68.4875 57.8426C67.1748 57.9863 65.9015 58.3799 64.7358 59.0023C63.4978 59.6493 62.3203 60.4067 61.2175 61.2653Z" fill="#593326"/>
<path d="M86.4277 61.2653C86.7859 60.6304 87.2204 60.0419 87.7214 59.5131C88.2219 58.9723 88.777 58.4853 89.3779 58.0599C90.6095 57.1586 92.0575 56.6016 93.574 56.4459C94.3467 56.3783 95.1251 56.4345 95.8802 56.6123C96.6246 56.7953 97.3362 57.0932 97.9894 57.4955C99.2419 58.2825 100.28 59.3695 101.01 60.6587C99.9239 59.7944 98.739 59.0631 97.4804 58.4803C96.8804 58.2214 96.253 58.032 95.6102 57.916C94.9781 57.8126 94.3358 57.788 93.6977 57.8426C92.3849 57.9872 91.1115 58.3818 89.946 59.0052C88.7081 59.6512 87.5306 60.4077 86.4277 61.2653Z" fill="#593326"/>
<path opacity="0.8" d="M40.4255 126.515C40.4255 126.515 75.7209 147.7 117.634 125.95" stroke="#087CA8" stroke-width="3" stroke-linecap="round" stroke-linejoin="round"/>
<g opacity="0.15">
<path opacity="0.15" d="M100.942 77.747C100.942 77.8778 100.98 78.0059 101.052 78.1149C101.124 78.2239 101.227 78.309 101.347 78.3593C101.468 78.4096 101.6 78.4229 101.728 78.3976C101.856 78.3722 101.974 78.3092 102.066 78.2167C102.158 78.1242 102.221 78.0063 102.246 77.878C102.271 77.7496 102.258 77.6166 102.208 77.4959C102.158 77.3751 102.073 77.272 101.964 77.1996C101.856 77.1273 101.728 77.089 101.598 77.0895C101.424 77.0895 101.257 77.1588 101.134 77.2821C101.011 77.4054 100.942 77.5726 100.942 77.747Z" fill="#472A1A"/>
<path opacity="0.15" d="M97.7334 79.3385C97.7329 79.4696 97.7712 79.5978 97.8436 79.7069C97.9159 79.8161 98.019 79.9011 98.1397 79.9513C98.2604 80.0014 98.3932 80.0144 98.5213 79.9886C98.6494 79.9627 98.7669 79.8992 98.8588 79.8061C98.9508 79.713 99.0131 79.5946 99.0378 79.4659C99.0624 79.3372 99.0483 79.204 98.9973 79.0834C98.9463 78.9627 98.8606 78.86 98.7512 78.7884C98.6419 78.7167 98.5137 78.6793 98.3831 78.681C98.2102 78.6825 98.045 78.7524 97.9233 78.8756C97.8017 78.9987 97.7334 79.1651 97.7334 79.3385Z" fill="#472A1A"/>
<path opacity="0.15" d="M100.942 81.6325C100.942 81.7632 100.981 81.891 101.053 81.9997C101.126 82.1083 101.229 82.1929 101.349 82.2428C101.47 82.2927 101.602 82.3056 101.73 82.2799C101.858 82.2542 101.975 82.191 102.067 82.0984C102.159 82.0058 102.221 81.8879 102.246 81.7596C102.271 81.6313 102.258 81.4985 102.208 81.3779C102.157 81.2573 102.073 81.1544 101.964 81.0821C101.855 81.0099 101.728 80.9717 101.598 80.9722C101.511 80.9722 101.426 80.9893 101.346 81.0226C101.267 81.0558 101.194 81.1044 101.133 81.1658C101.072 81.2271 101.024 81.3 100.991 81.3801C100.959 81.4602 100.942 81.5459 100.942 81.6325Z" fill="#472A1A"/>
<path opacity="0.15" d="M95.897 82.2928C95.897 82.4234 95.9356 82.551 96.0079 82.6596C96.0802 82.7682 96.183 82.8528 96.3032 82.9028C96.4235 82.9528 96.5558 82.9659 96.6835 82.9404C96.8111 82.9149 96.9284 82.852 97.0204 82.7597C97.1125 82.6673 97.1751 82.5497 97.2005 82.4216C97.2259 82.2935 97.2129 82.1608 97.1631 82.0401C97.1133 81.9195 97.0289 81.8163 96.9207 81.7438C96.8125 81.6712 96.6852 81.6325 96.5551 81.6325C96.4685 81.6321 96.3828 81.649 96.3028 81.682C96.2228 81.7151 96.1501 81.7637 96.0889 81.8251C96.0277 81.8865 95.9793 81.9594 95.9463 82.0397C95.9134 82.1199 95.8966 82.206 95.897 82.2928Z" fill="#472A1A"/>
<path opacity="0.15" d="M92.5361 81.6325C92.5361 81.7632 92.5748 81.891 92.6473 81.9997C92.7197 82.1083 92.8226 82.1929 92.9431 82.2428C93.0635 82.2927 93.1959 82.3056 93.3237 82.2799C93.4514 82.2542 93.5687 82.191 93.6606 82.0984C93.7525 82.0058 93.815 81.8879 93.84 81.7596C93.8651 81.6313 93.8517 81.4985 93.8014 81.3779C93.7512 81.2573 93.6664 81.1544 93.5578 81.0821C93.4492 81.0099 93.3217 80.9717 93.1914 80.9722C93.1051 80.9722 93.0197 80.9893 92.94 81.0226C92.8603 81.0558 92.788 81.1044 92.7271 81.1658C92.6662 81.2271 92.618 81.3 92.5852 81.3801C92.5524 81.4602 92.5358 81.5459 92.5361 81.6325Z" fill="#472A1A"/>
<path opacity="0.15" d="M94.0632 78.4073C94.0632 78.5379 94.1018 78.6655 94.1741 78.7741C94.2465 78.8827 94.3492 78.9673 94.4695 79.0173C94.5897 79.0673 94.7221 79.0804 94.8497 79.0549C94.9774 79.0294 95.0946 78.9665 95.1867 78.8742C95.2787 78.7818 95.3414 78.6642 95.3668 78.5361C95.3922 78.408 95.3791 78.2753 95.3293 78.1546C95.2795 78.034 95.1952 77.9308 95.0869 77.8583C94.9787 77.7857 94.8515 77.747 94.7213 77.747C94.5468 77.747 94.3794 77.8166 94.256 77.9404C94.1326 78.0642 94.0632 78.2322 94.0632 78.4073Z" fill="#472A1A"/>
</g>
<g opacity="0.15">
<path opacity="0.15" d="M61.5747 78.001C61.5747 78.1316 61.5361 78.2592 61.4638 78.3678C61.3915 78.4764 61.2887 78.561 61.1685 78.611C61.0482 78.661 60.9159 78.6741 60.7883 78.6486C60.6606 78.6231 60.5433 78.5602 60.4513 78.4679C60.3593 78.3755 60.2966 78.2579 60.2712 78.1298C60.2458 78.0017 60.2588 77.869 60.3086 77.7483C60.3585 77.6277 60.4428 77.5245 60.551 77.452C60.6592 77.3794 60.7865 77.3407 60.9166 77.3407C61.0032 77.3403 61.0889 77.3572 61.1689 77.3902C61.2489 77.4233 61.3216 77.4719 61.3828 77.5333C61.444 77.5947 61.4925 77.6676 61.5254 77.7479C61.5583 77.8282 61.5751 77.9142 61.5747 78.001Z" fill="#472A1A"/>
<path opacity="0.15" d="M64.7837 79.584C64.7837 79.7146 64.7451 79.8423 64.6728 79.9508C64.6005 80.0594 64.4977 80.144 64.3775 80.194C64.2572 80.244 64.1249 80.2571 63.9972 80.2316C63.8696 80.2061 63.7523 80.1432 63.6603 80.0509C63.5682 79.9585 63.5056 79.8409 63.4802 79.7128C63.4548 79.5847 63.4678 79.452 63.5176 79.3313C63.5674 79.2107 63.6518 79.1076 63.76 79.035C63.8682 78.9625 63.9955 78.9237 64.1256 78.9237C64.2122 78.9233 64.2979 78.9402 64.3779 78.9732C64.4579 79.0063 64.5306 79.0549 64.5918 79.1163C64.653 79.1777 64.7014 79.2506 64.7344 79.3309C64.7673 79.4112 64.7841 79.4972 64.7837 79.584Z" fill="#472A1A"/>
<path opacity="0.15" d="M61.5747 81.8837C61.5747 82.0143 61.5361 82.1419 61.4638 82.2505C61.3915 82.3591 61.2887 82.4437 61.1685 82.4937C61.0482 82.5437 60.9159 82.5567 60.7883 82.5313C60.6606 82.5058 60.5433 82.4429 60.4513 82.3506C60.3593 82.2582 60.2966 82.1406 60.2712 82.0125C60.2458 81.8844 60.2588 81.7516 60.3086 81.631C60.3585 81.5103 60.4428 81.4072 60.551 81.3347C60.6592 81.2621 60.7865 81.2234 60.9166 81.2234C61.0912 81.2234 61.2586 81.293 61.382 81.4168C61.5054 81.5406 61.5747 81.7086 61.5747 81.8837Z" fill="#472A1A"/>
<path opacity="0.15" d="M66.6202 82.5439C66.6202 82.6745 66.5816 82.8022 66.5092 82.9108C66.4369 83.0194 66.3341 83.104 66.2139 83.154C66.0936 83.2039 65.9613 83.217 65.8337 83.1915C65.706 83.1661 65.5887 83.1032 65.4967 83.0108C65.4047 82.9185 65.342 82.8009 65.3166 82.6728C65.2912 82.5447 65.3042 82.4119 65.3541 82.2913C65.4039 82.1706 65.4882 82.0675 65.5964 81.9949C65.7047 81.9224 65.8319 81.8837 65.9621 81.8837C66.0486 81.8833 66.1343 81.9001 66.2143 81.9332C66.2943 81.9662 66.367 82.0148 66.4282 82.0762C66.4894 82.1376 66.5379 82.2105 66.5708 82.2908C66.6038 82.3711 66.6205 82.4571 66.6202 82.5439Z" fill="#472A1A"/>
<path opacity="0.15" d="M69.9781 81.8837C69.9781 82.0143 69.9395 82.1419 69.8672 82.2505C69.7948 82.3591 69.6921 82.4437 69.5718 82.4937C69.4516 82.5437 69.3192 82.5567 69.1916 82.5313C69.0639 82.5058 68.9467 82.4429 68.8546 82.3506C68.7626 82.2582 68.6999 82.1406 68.6745 82.0125C68.6491 81.8844 68.6621 81.7516 68.712 81.631C68.7618 81.5103 68.8461 81.4072 68.9543 81.3347C69.0626 81.2621 69.1898 81.2234 69.32 81.2234C69.4945 81.2234 69.6619 81.293 69.7853 81.4168C69.9087 81.5406 69.9781 81.7086 69.9781 81.8837Z" fill="#472A1A"/>
<path opacity="0.15" d="M68.4539 78.6584C68.4544 78.7891 68.4163 78.9171 68.3443 79.026C68.2724 79.135 68.1698 79.22 68.0496 79.2705C67.9294 79.3209 67.797 79.3343 67.6691 79.3092C67.5413 79.284 67.4238 79.2214 67.3314 79.1291C67.2391 79.0369 67.1762 78.9193 67.1505 78.7911C67.1249 78.6629 67.1378 78.53 67.1875 78.4092C67.2372 78.2884 67.3216 78.1851 67.4299 78.1125C67.5382 78.0398 67.6655 78.001 67.7958 78.001C67.9698 78.001 68.1368 78.0702 68.2601 78.1934C68.3835 78.3166 68.4531 78.4838 68.4539 78.6584Z" fill="#472A1A"/>
</g>
<path d="M82.3077 21.3353C84.4982 19.9139 86.9405 18.9282 89.5018 18.4317C90.8208 18.1778 94.9718 17.3792 99.1876 18.9368C103.648 20.5847 107.723 25.9911 115.693 36.7136C115.871 36.9507 116.315 37.4924 116.934 38.1809C117.552 38.8694 118.787 39.809 122.935 41.9451C136.058 48.7172 138.319 55.0378 132.857 64.8997C129.483 70.9975 139.888 69.8067 134.747 84.9706C130.726 96.8218 95.9759 32.2186 95.9759 32.2186L81.5483 30.2745L82.3077 21.3353Z" fill="#472A1A"/>
<path d="M51.1155 79.3412C49.7415 79.3429 48.3909 79.6971 47.1918 80.37C45.9927 81.043 44.9851 82.0124 44.2646 83.1862C43.5441 84.3599 43.1348 85.699 43.0754 87.0762C43.016 88.4534 43.3087 89.8229 43.9255 91.0547C44.5423 92.2865 45.4627 93.3395 46.5994 94.1138C47.7361 94.8881 49.0513 95.3579 50.4199 95.4786C51.7886 95.5993 53.1653 95.3669 54.4191 94.8033C55.673 94.2398 56.7625 93.364 57.5839 92.2591" stroke="#D8D8D8" stroke-width="1.5" stroke-miterlimit="10" stroke-linecap="round"/>
<path d="M110.049 79.3412C111.423 79.3429 112.773 79.6971 113.972 80.37C115.172 81.043 116.179 82.0124 116.9 83.1862C117.62 84.3599 118.03 85.699 118.089 87.0762C118.148 88.4534 117.856 89.8229 117.239 91.0547C116.622 92.2865 115.702 93.3395 114.565 94.1138C113.428 94.8881 112.113 95.3579 110.744 95.4786C109.376 95.5993 107.999 95.3669 106.745 94.8033C105.491 94.2398 104.402 93.364 103.58 92.2591" stroke="#D8D8D8" stroke-width="2" stroke-miterlimit="10" stroke-linecap="round"/>
<path d="M131.288 83.207C127.969 92.4397 118.489 95.8511 125.123 108.777C126.979 112.392 127.317 114.503 127.171 116.032C127.072 116.855 126.874 117.662 126.58 118.436C124.693 123.298 118.478 125.355 117.322 125.719C116.672 125.53 116.02 125.347 115.367 125.155C109.896 123.608 104.49 122.215 99.1482 120.976L95.7874 113.619C96.8276 112.212 97.7175 110.699 98.4422 109.105C99.6009 106.565 99.6459 105.284 100.945 103.636C102.2 102.045 103.614 101.379 104.337 100.958C110.55 97.2902 113.297 83.0631 110.977 71.4884C110.746 70.3372 110.507 69.4201 110.367 68.9065C109.804 63.7315 110.142 62.4166 110.6 62.2783C110.758 62.2304 111.621 62.1147 111.621 62.1147L124.018 66.1441C125.722 67.4775 127.249 69.0252 128.56 70.7491C130.951 73.901 133.043 78.3565 131.288 83.207Z" fill="#341F15"/>
<path d="M83.6743 20.5283C83.2618 27.0897 82.8474 33.6521 82.4312 40.2154C79.0563 38.4546 76.3508 38.2769 74.4918 38.4659C65.2532 39.4056 56.906 51.3922 54.6814 68.4692C54.6814 68.4692 22.7946 100.764 30.3684 84.8352C37.9421 68.9066 22.0943 61.5955 35.2085 50.2776C43.5781 43.0569 47.0908 40.4439 50.4994 36.9761C54.1949 33.2175 52.9096 33.5674 57.0635 29.2615C62.6208 23.5024 66.6256 19.3432 72.5316 18.4289C74.5593 18.1185 78.522 17.9182 83.6743 20.5283Z" fill="#472A1A"/>
<path d="M82.6338 39.1798C83.5559 38.7923 84.5041 38.4707 85.4715 38.2176C86.4377 37.961 87.4221 37.7789 88.416 37.673C89.4192 37.5615 90.4319 37.5672 91.4337 37.6899C92.4537 37.8108 93.4441 38.1127 94.3586 38.5816C95.2749 39.0701 96.0728 39.7551 96.6957 40.5878C97.003 40.9992 97.2713 41.4385 97.4972 41.8999C97.7185 42.3457 97.9285 42.7982 98.1272 43.2572C98.8796 45.095 99.4797 46.992 99.9215 48.9288C100.394 50.8419 100.85 52.7438 101.451 54.5976C102.048 56.4556 102.776 58.2689 103.628 60.0238C104.481 61.7812 105.433 63.4883 106.48 65.1367C106.992 65.9832 107.549 66.7592 108.08 67.6114C108.605 68.4585 109.075 69.3389 109.486 70.2469C110.3 72.066 110.881 73.9812 111.216 75.9467C111.545 77.9036 111.668 79.8897 111.582 81.8723C111.427 85.8397 110.552 89.7336 109.332 93.4752C108.716 95.3488 108.004 97.1886 107.237 99.0001C106.854 99.9059 106.455 100.806 106.05 101.703C105.627 102.585 105.268 103.496 104.975 104.429C104.396 106.303 104.142 108.262 104.227 110.222C104.297 112.19 104.721 114.128 105.479 115.945C104.685 114.137 104.224 112.2 104.118 110.228C103.996 108.25 104.215 106.267 104.764 104.364C105.043 103.416 105.392 102.49 105.808 101.593C106.202 100.696 106.59 99.793 106.964 98.8845C107.706 97.0701 108.395 95.2303 108.986 93.3624C110.167 89.6292 110.983 85.7606 111.092 81.8554C111.157 79.9063 111.014 77.9559 110.668 76.037C110.143 73.1654 109.083 70.4189 107.543 67.9415C107.031 67.1289 106.449 66.3134 105.934 65.4753C104.868 63.8099 103.897 62.0849 103.026 60.3088C102.155 58.5284 101.41 56.6888 100.796 54.8036C100.177 52.9215 99.7106 50.9971 99.2325 49.0953C98.7907 47.1981 98.1963 45.3401 97.455 43.5393C97.261 43.0963 97.0557 42.6561 96.8363 42.2244C96.6296 41.8043 96.3838 41.4046 96.1023 41.0308C95.5413 40.2868 94.8228 39.6768 93.9986 39.2447C92.3478 38.3699 90.3763 38.2119 88.4835 38.3982C86.5684 38.6069 84.6931 39.0906 82.915 39.8344L82.6338 39.1798Z" fill="#472A1A"/>
<path d="M82.1444 37.2582C81.245 37.0497 80.3277 36.9278 79.4052 36.8942C78.4856 36.8527 77.5642 36.8933 76.6519 37.0155C74.8304 37.246 73.0814 37.874 71.5277 38.8553C70.7544 39.3391 70.0424 39.9152 69.4072 40.5709C68.7699 41.2201 68.2042 41.9362 67.7197 42.7069C66.7458 44.2586 65.9915 45.9386 65.4783 47.6985C64.3786 51.2144 63.7065 54.86 63.0062 58.5029C62.3059 62.1457 61.5691 65.8083 60.2782 69.3326C59.6319 71.0978 58.8004 72.7891 57.7977 74.3778C55.7766 77.5856 52.8846 80.1475 49.4618 81.7623C47.8129 82.5501 46.2597 83.5253 44.8326 84.6686C43.4088 85.8141 42.1937 87.1984 41.2412 88.7601L40.8952 89.3499C40.7827 89.5502 40.6927 89.759 40.5887 89.9622C40.3721 90.3657 40.2175 90.8087 40.0403 91.2207C39.7203 92.0789 39.4757 92.9636 39.3091 93.8646C38.9712 95.6777 38.9039 97.5312 39.1094 99.3641C39.2088 100.282 39.3647 101.194 39.5762 102.093C39.7808 102.997 40.0515 103.884 40.3862 104.748C39.6572 103.036 39.1642 101.232 38.9209 99.3867C38.6594 97.5335 38.6736 95.6516 38.9631 93.8025C39.1162 92.876 39.3505 91.9648 39.6634 91.0796C39.8378 90.6422 39.9897 90.1992 40.2034 89.7788C40.3075 89.5671 40.3974 89.3499 40.5099 89.1439L40.8531 88.5287C41.8062 86.9011 43.0337 85.4517 44.481 84.2454C45.9194 83.0401 47.5019 82.0192 49.1918 81.2064C52.4986 79.626 55.2856 77.1293 57.2239 74.011C58.1906 72.4568 58.991 70.8045 59.6116 69.0815C60.8941 65.639 61.6478 62.0074 62.3706 58.3759C63.0934 54.7443 63.7768 51.0705 64.9608 47.5264C65.5514 45.7628 66.2657 43.9993 67.3344 42.4473C67.8522 41.6607 68.4528 40.9323 69.1259 40.2746C69.7921 39.6097 70.5374 39.0297 71.3449 38.5477C72.9593 37.5908 74.7631 37.0004 76.6294 36.818C78.4791 36.6228 80.3488 36.772 82.1444 37.2582Z" fill="#472A1A"/>
<path d="M82.662 38.2768C82.662 38.2768 71.3422 33.0764 65.8918 45.4779C60.4414 57.8793 61.6085 75.4332 46.9813 81.6974C30.4192 88.794 36.5417 105.487 36.5417 105.487C36.5417 105.487 25.6409 97.0786 28.9961 89.0846C32.3513 81.0907 48.2834 70.2807 51.6358 55.0773C54.9882 39.8739 72.1803 25.4747 82.662 38.2768Z" fill="#472A1A"/>
<path d="M102.104 114.616C100.456 122.451 112.254 125.056 112.254 125.056C110.571 125.48 108.835 125.655 107.102 125.578C103.139 125.417 98.0317 123.792 96.1334 116.986C95.9677 116.398 95.8603 115.795 95.8127 115.186C95.3374 109.587 99.2017 102.544 103.17 95.3235C107.633 87.2223 112.234 78.8954 111.002 72.1346C110.988 72.0528 110.971 71.9653 110.955 71.8835C110.426 69.202 109.558 66.5991 108.373 64.1379C108.26 63.8924 108.142 63.6554 108.027 63.4127C105.442 58.0373 104 56.4684 102.073 52.8792C100.259 49.4932 100.369 48.4689 97.8883 43.5676C96.9461 41.7024 96.2177 40.6019 95.104 39.6623C92.2438 37.2469 88.2531 37.8282 87.2603 38.0116C85.5006 38.3408 83.8478 39.0964 82.4455 40.2125C82.3511 39.143 82.1876 38.0808 81.9561 37.0325C80.5499 30.6582 77.0513 26.9815 77.7629 26.4369C78.2663 26.0504 79.6218 26.6655 82.3245 28.9765C82.6058 28.889 82.8673 28.8072 83.1401 28.7253C102.264 23.1271 121.445 38.0201 125.514 55.0266C128.18 66.1582 129.755 68.2463 130.759 70.958C131.322 72.4535 131.687 74.1352 131.983 77.6116C132.796 87.4114 103.758 106.774 102.104 114.616Z" fill="#472A1A"/>
<path d="M84.2932 27.0126C85.5246 25.3155 87.1713 23.9656 89.0743 23.0932C90.0428 22.6674 91.0712 22.3942 92.1229 22.2834C93.1809 22.1643 94.2511 22.2167 95.2924 22.4386C96.3354 22.6534 97.3422 23.0174 98.282 23.5193C99.2369 24.0112 100.11 24.649 100.869 25.4098C101.59 26.1976 102.207 27.0748 102.706 28.0199L104.216 30.7288C105.226 32.5177 106.289 34.2926 107.403 36.0138C108.5 37.7432 109.728 39.3855 111.076 40.9265C113.846 43.9745 117.122 46.5179 120.759 48.4435C118.863 47.6096 117.047 46.6047 115.333 45.4412C113.616 44.2581 112.026 42.8992 110.589 41.3864C109.171 39.8556 107.883 38.2085 106.739 36.4625C105.589 34.7271 104.52 32.9551 103.485 31.1492L101.992 28.4319C101.531 27.5443 100.964 26.7162 100.304 25.9657C99.6122 25.2513 98.8155 24.647 97.9417 24.1739C97.0659 23.6885 96.1296 23.3222 95.1574 23.0847C94.6707 22.9694 94.1763 22.8893 93.6781 22.8449C93.4306 22.8449 93.1803 22.8054 92.93 22.8139H92.5532L92.1791 22.8393C91.1727 22.9015 90.1817 23.1175 89.2402 23.4798C87.3267 24.2312 85.6274 25.4446 84.2932 27.0126Z" fill="#341F15"/>
<path d="M82.0432 31.7474C81.1327 30.3668 79.8703 29.2561 78.3871 28.5306C78.2071 28.4403 78.0159 28.367 77.8247 28.288C77.6404 28.2165 77.4527 28.1543 77.2622 28.1017C76.8706 27.9975 76.4734 27.9155 76.0725 27.8562C75.2745 27.7384 74.4649 27.7204 73.6623 27.8026C72.0706 27.9504 70.5711 28.6175 69.3931 29.7017C68.2119 30.7739 67.3007 32.165 66.4036 33.5533C65.5064 34.9416 64.6149 36.375 63.6503 37.7435L62.9162 38.7622L62.1541 39.7667C61.6422 40.4326 61.105 41.0788 60.551 41.708C58.3432 44.2294 55.857 46.4909 53.1404 48.4491C55.6288 46.2478 57.9385 43.8512 60.0476 41.282C61.0854 39.9924 62.0753 38.6662 62.995 37.2864C63.9146 35.9066 64.7949 34.5042 65.6949 33.0933C66.1533 32.3907 66.6201 31.6825 67.1348 31.0109C67.6395 30.3166 68.2155 29.6772 68.8532 29.1034C70.1707 27.937 71.8405 27.2483 73.5948 27.148C74.4515 27.0901 75.312 27.1461 76.1541 27.3145C76.5728 27.397 76.9861 27.5054 77.3915 27.639C77.594 27.7095 77.7937 27.7801 77.9962 27.8732C78.1987 27.9663 78.3843 28.0538 78.5587 28.1553C80.0426 28.9886 81.2532 30.2366 82.0432 31.7474Z" fill="#341F15"/>
<path d="M38.7607 51.4853C37.5019 52.3897 36.4222 53.5218 35.577 54.8234C34.7778 56.1073 34.3242 57.5774 34.2609 59.0898C34.2159 59.8595 34.2159 60.6311 34.2609 61.4008C34.2834 62.1768 34.3424 62.9668 34.3705 63.7485C34.4521 65.306 34.6208 66.8523 34.8233 68.4325C34.2853 66.9375 33.9137 65.3875 33.7152 63.8105C33.4796 62.2307 33.3855 60.6329 33.434 59.0362C33.4822 58.2139 33.6392 57.4016 33.9009 56.6208C34.1727 55.8439 34.5596 55.1124 35.0483 54.4509C36.0117 53.1592 37.2901 52.1379 38.7607 51.4853Z" fill="#341F15"/>
<g opacity="0.4">
<path opacity="0.4" d="M97.2104 113.921C97.3776 115.053 97.6411 116.168 97.9979 117.254C98.3418 118.326 98.823 119.348 99.4294 120.296C99.7296 120.764 100.075 121.202 100.462 121.602C100.651 121.805 100.851 121.998 101.061 122.181C101.28 122.35 101.491 122.533 101.724 122.686C101.958 122.838 102.197 122.968 102.436 123.129C102.675 123.289 102.934 123.391 103.198 123.49C103.724 123.709 104.267 123.888 104.821 124.023C104.24 123.998 103.664 123.903 103.105 123.741C102.819 123.662 102.537 123.568 102.261 123.459C100.897 122.859 99.7422 121.864 98.9457 120.6C98.3129 119.607 97.8456 118.517 97.562 117.372C97.275 116.246 97.1565 115.083 97.2104 113.921Z" fill="#341F15"/>
</g>
<path d="M127.213 69.9901C128.099 70.8918 128.828 71.9363 129.37 73.0799C129.919 74.2485 130.228 75.5162 130.278 76.8074C130.257 78.1027 130.007 79.3839 129.539 80.5913C129.09 81.777 128.546 82.9245 127.913 84.0225C127.285 85.1195 126.598 86.1811 125.854 87.2026C125.107 88.2178 124.303 89.19 123.447 90.1146C121.743 91.9629 119.832 93.6076 117.752 95.0159C119.607 93.36 121.345 91.5761 122.952 89.6772C124.542 87.7858 125.958 85.7544 127.185 83.6077C127.806 82.5491 128.344 81.4434 128.793 80.3007C129.258 79.1847 129.539 77.9999 129.623 76.7933C129.633 75.5772 129.419 74.3699 128.99 73.2323C128.551 72.0737 127.953 70.9824 127.213 69.9901Z" fill="#341F15"/>
</g>
<defs>
<clipPath id="clip0_217_9410">
<rect width="142" height="142" fill="white" transform="translate(9 18)"/>
</clipPath>
</defs>
</svg>
