<svg width="160" height="160" viewBox="0 0 160 160" fill="none" xmlns="http://www.w3.org/2000/svg">
<rect width="160" height="160" rx="80" fill="#648FFF"/>
<path d="M104.218 149.404C93.8757 144.318 97.1658 127.471 97.1658 127.471L80.2466 127.783L63.3274 127.471C63.3274 127.471 66.6176 144.318 56.2788 149.404" fill="#FAC9A6"/>
<path opacity="0.5" d="M58.9656 147.879C67.1703 147.849 75.3011 146.336 82.9617 143.415C87.8297 141.545 92.449 139.089 96.7164 136.102C96.569 133.219 96.7164 130.328 97.1564 127.474L80.2372 127.805L63.318 127.474C63.8128 129.941 63.9765 132.462 63.805 134.971C63.6353 137.442 63.3305 141.197 60.9234 145.18C60.3482 146.133 59.6933 147.036 58.9656 147.879Z" fill="#CEA78E"/>
<path d="M143.342 137.124C137.955 125.381 105.946 119.574 98.4292 116.019C92.5024 118.83 85.2747 120.464 77.4687 120.464C71.1183 120.504 64.8177 119.349 58.8997 117.059C48.3818 120.692 21.5323 126.462 16.6394 137.124C13.2844 144.458 10.7235 152.127 9 160H151C149.269 152.127 146.702 144.458 143.342 137.124Z" fill="#55BEC5"/>
<path d="M143.342 137.124C137.955 125.381 105.946 119.574 98.4292 116.019C92.5024 118.83 85.2747 120.464 77.4687 120.464C71.1183 120.504 64.8177 119.349 58.8997 117.059C48.3818 120.692 21.5323 126.462 16.6394 137.124C13.2844 144.458 10.7235 152.127 9 160H151C149.269 152.127 146.702 144.458 143.342 137.124Z" fill="#A384BC"/>
<path opacity="0.8" d="M25.9318 129.676C25.9318 129.676 74.6405 160.212 132.51 128.858" stroke="#EAEAEA" stroke-width="3" stroke-linecap="round" stroke-linejoin="round"/>
<path d="M72.8837 114.22C72.8837 114.22 39.7964 114.148 21.7396 129.48C19.6309 131.285 19.6844 132.994 19.6844 132.994C19.6757 133.725 19.9541 134.431 20.4606 134.962C20.9688 135.455 21.6056 135.797 22.2989 135.949C23.2561 136.166 24.2494 136.171 25.2089 135.965C24.7029 137.527 25.0957 138.464 25.2277 138.726C26.0794 140.445 28.9987 141.21 32.1789 139.829C32.1161 140.551 32.1255 141.85 32.8829 142.934C34.1587 144.759 37.0875 145.312 39.9158 143.903C40.0917 144.662 40.6197 146.483 42.2161 147.748C44.3655 149.454 47.5583 149.457 50.2766 147.723C50.9694 149.231 52.1823 150.442 53.6956 151.138C57.0958 152.596 60.2194 150.25 60.4111 150.1C60.4834 150.26 61.5456 152.471 64.025 152.834C64.9004 152.955 65.7926 152.833 66.6017 152.479C67.4109 152.125 68.1051 151.555 68.6068 150.831C68.9516 151.678 69.5389 152.406 70.2957 152.924C71.0526 153.442 71.9457 153.728 72.8644 153.746C73.7831 153.764 74.6871 153.514 75.4642 153.027C76.2413 152.539 76.8573 151.836 77.2361 151.003C77.6594 151.906 78.3339 152.67 79.1799 153.204C80.0259 153.738 81.008 154.02 82.0101 154.016C83.0122 154.013 83.9925 153.725 84.8349 153.185C85.6774 152.646 86.3468 151.878 86.7641 150.972C87.4658 151.603 88.2868 152.088 89.1792 152.4C90.0715 152.712 91.0174 152.845 91.9618 152.79C95.164 152.559 96.9898 150.15 97.2569 149.776C100.069 151.256 103.089 151.066 104.987 149.379C105.756 148.668 106.302 147.751 106.559 146.739C108.837 148.335 111.873 148.688 114.214 147.642C114.955 147.316 115.62 146.84 116.166 146.244C116.713 145.649 117.129 144.947 117.388 144.184C117.388 144.184 123.534 147.22 125.379 141.997C125.379 141.997 131.35 144.215 132.123 139.217C134.15 140.466 136.375 140.285 137.465 139.02C137.957 138.396 138.222 137.626 138.219 136.833C139.136 136.448 139.906 135.784 140.419 134.937C140.808 134.008 140.903 132.984 140.692 132.001C140.331 130.264 118.563 114.316 72.8837 114.22Z" fill="white"/>
<path d="M54.8177 117.2C54.8177 117.2 60.3171 114.494 61.5709 110.327C73.6899 111.714 85.9507 111.261 97.9327 108.984C98.2171 110.04 98.6397 111.055 99.1897 112.002C100.305 114.048 102.074 115.667 104.218 116.603C104.218 116.603 77.6636 128.077 54.8177 117.2Z" fill="#087CA8"/>
<path d="M55.245 91.8276C52.731 84.046 46.7602 85.8453 46.1852 86.0328C45.6007 86.1015 39.4225 87.0136 40.491 95.1232C41.5594 103.233 46.3234 107.697 50.7889 106.4C55.3832 105.669 57.7841 99.656 55.245 91.8276Z" fill="#EFBF9E"/>
<path d="M106.933 91.8276C109.447 84.046 115.433 85.8453 115.993 86.0328C116.58 86.1015 122.755 87.0136 121.69 95.1232C120.625 103.233 115.854 107.697 111.392 106.4C106.798 105.669 104.397 99.656 106.933 91.8276Z" fill="#EFBF9E"/>
<path d="M112.768 79.585C109.642 45.466 83.5433 47.3778 81.089 47.634C78.6284 47.3778 52.5362 45.466 49.4095 79.585C46.267 113.907 61.6401 136.321 81.089 135.087C100.538 136.321 115.914 113.907 112.768 79.585Z" fill="#FAC9A6"/>
<path d="M81.5382 91.6119L83.3765 104.817C82.643 105.299 81.7971 105.586 80.92 105.65C80.0429 105.714 79.1639 105.553 78.3674 105.182" stroke="#DBB295" stroke-width="3" stroke-miterlimit="10" stroke-linecap="round"/>
<path d="M78.4021 124.547C78.4021 124.547 82.2516 125.975 84.9824 124.1" stroke="#DBAF91" stroke-width="2" stroke-miterlimit="10" stroke-linecap="round"/>
<path d="M74.2917 119.277C75.1999 118.58 79.7753 115.216 85.391 116.088C86.7969 116.308 88.1518 116.776 89.3914 117.471" stroke="#DBAF91" stroke-width="3" stroke-miterlimit="10" stroke-linecap="round"/>
<path d="M58.774 86.6137C59.1758 85.9125 59.66 85.2613 60.2164 84.6738C60.7779 84.0775 61.3979 83.5385 62.0674 83.065C63.4441 82.0678 65.0617 81.4503 66.756 81.275C68.485 81.1179 70.2183 81.5259 71.6928 82.4371C73.0924 83.3087 74.2513 84.5133 75.0647 85.9421C73.8524 84.9843 72.5295 84.1737 71.1241 83.5273C70.4532 83.242 69.7522 83.0325 69.0343 82.9025C68.3281 82.7877 67.6102 82.7614 66.8974 82.8244C65.4299 82.984 64.0068 83.422 62.7053 84.1146C61.321 84.8269 60.0051 85.6634 58.774 86.6137Z" fill="#EDEDED"/>
<path d="M86.6199 86.6137C87.0216 85.9125 87.5058 85.2613 88.0623 84.6738C88.6241 84.0767 89.2453 83.5377 89.9163 83.065C91.292 82.0679 92.9085 81.4504 94.6018 81.275C96.3308 81.1179 98.0641 81.5259 99.5386 82.4371C100.938 83.3095 102.098 84.5139 102.914 85.9421C101.7 84.9843 100.376 84.1737 98.9699 83.5273C98.299 83.242 97.598 83.0325 96.8801 82.9025C96.1739 82.7877 95.456 82.7614 94.7432 82.8244C93.2789 82.9852 91.8592 83.4231 90.5605 84.1146C89.1735 84.8271 87.8544 85.6636 86.6199 86.6137Z" fill="#EDEDED"/>
<path d="M74.9046 105.669C74.1441 106.75 73.4025 107.825 72.6797 108.912C72.3246 109.459 71.9664 110.002 71.6301 110.558L71.121 111.386L70.6371 112.23C70.4705 112.508 70.3228 112.795 70.1688 113.079L69.9363 113.507L69.7258 113.941C69.5875 114.232 69.4272 114.516 69.3015 114.813C69.1758 115.11 69.047 115.403 68.9119 115.7C68.4178 116.901 68.0339 118.145 67.7648 119.414C67.7307 118.083 67.9241 116.755 68.3368 115.488C68.7569 114.218 69.3022 112.993 69.9646 111.83C70.6241 110.678 71.371 109.579 72.1989 108.54C73.0089 107.502 73.9147 106.54 74.9046 105.669Z" fill="#DBB295"/>
<path d="M87.8325 105.457C88.8267 106.334 89.7368 107.302 90.5508 108.347C91.3793 109.384 92.1263 110.484 92.7851 111.636C93.4425 112.794 93.9835 114.015 94.4003 115.278C94.8156 116.546 95.01 117.875 94.9754 119.208C94.706 117.936 94.321 116.691 93.8253 115.488C93.6901 115.194 93.5581 114.897 93.4356 114.601C93.313 114.304 93.1496 114.019 93.0114 113.729L92.8008 113.295L92.5683 112.867C92.4111 112.586 92.254 112.295 92.1 112.017L91.6161 111.174L91.107 110.355C90.7708 109.799 90.4125 109.256 90.0574 108.709C89.3346 107.616 88.593 106.538 87.8325 105.457Z" fill="#DBB295"/>
<path d="M65.615 69.1887C68.1275 68.3555 70.7003 67.7143 73.311 67.2707C75.924 66.8092 78.5657 66.5254 81.2175 66.421C82.5436 66.3866 83.8729 66.371 85.2022 66.4397C86.5323 66.5041 87.8582 66.6376 89.1743 66.8396C90.4904 67.0415 91.7912 67.3316 93.0679 67.708C94.3383 68.0892 95.5711 68.5848 96.7509 69.1887C95.5067 68.7671 94.2379 68.4208 92.9516 68.1516C91.6726 67.8798 90.3747 67.708 89.08 67.5643C87.7853 67.4206 86.4749 67.355 85.1708 67.3269C83.8666 67.2988 82.5562 67.3081 81.2489 67.355C79.9417 67.4019 78.6375 67.4831 77.3302 67.5924C76.023 67.7018 74.722 67.8423 73.4178 67.9923C70.8127 68.3172 68.2139 68.7108 65.615 69.1887Z" fill="#DBAF91"/>
<path d="M73.3049 74.087C74.537 73.5821 75.8173 73.2022 77.1262 72.953C78.4339 72.6864 79.7613 72.5255 81.0952 72.4719C82.4382 72.4193 83.7832 72.5062 85.1081 72.7312C86.4357 72.9585 87.7124 73.4175 88.8791 74.087C87.611 73.7743 86.3193 73.5654 85.017 73.4622C83.7286 73.3653 82.4339 73.3778 81.136 73.4091L80.165 73.4466L79.1908 73.5153C78.5403 73.5528 77.8898 73.6184 77.2393 73.6746C75.9352 73.8058 74.6279 73.9433 73.3049 74.087Z" fill="#DBAF91"/>
<path d="M101.993 44.6163C101.839 44.9943 101.679 45.3754 101.487 45.7565C99.7993 49.2958 96.9334 52.9789 92.6219 56.6901H71.3912C71.3912 56.6901 63.7706 52.5072 59.7985 45.7252C59.5879 45.366 59.3868 44.9974 59.1983 44.6256C56.4297 39.1307 56.2412 32.1301 63.9529 24.3204C79.216 8.91654 110.449 23.9924 101.993 44.6163Z" fill="#EDEDED"/>
<path d="M101.487 45.7565C99.7993 49.2958 96.9334 52.9789 92.6219 56.6901H71.3912C71.3912 56.6901 63.7706 52.5072 59.7985 45.7252C62.2811 44.2258 71.1838 41.1987 80.0236 43.3042C80.0205 43.3042 91.6163 40.399 101.487 45.7565Z" fill="#D7D7D7"/>
<path d="M52.0112 83.6366C52.0112 83.6366 79.2347 76.1987 79.2347 61.1978C81.2626 64.4236 83.6194 67.4332 86.2676 70.179C91.9834 76.0624 98.9074 80.6524 106.568 83.6366L111.1 87.2385C111.1 87.2385 113.519 85.1767 115.373 84.6207C115.373 84.6207 120.826 39.0338 79.1655 45.1285C70.7782 43.1761 65.0934 45.1285 62.6517 46.1875C50.5908 51.445 43.4259 67.5362 46.3107 85.8796L52.0112 83.6366Z" fill="#EDEDED"/>
<path d="M49.2459 100.387C49.755 98.0628 50.2138 95.5855 50.5909 92.9646C51.2131 88.6318 51.5594 84.2642 51.6279 79.888L45.7671 74.8711C45.1789 83.5232 46.3646 92.204 49.2522 100.387H49.2459Z" fill="#EDEDED"/>
<path d="M111.775 99.7528C111.367 97.5827 111 95.32 110.676 92.9646C110.047 88.335 109.695 83.9584 109.541 79.888L115.49 78.1793C115.823 85.5571 114.556 92.9199 111.775 99.7684V99.7528Z" fill="#EDEDED"/>
<path d="M69.3987 91.9243C69.4427 94.0861 68.478 95.8573 67.243 95.8729C66.008 95.8886 64.9709 94.1517 64.9238 91.9868C64.8767 89.822 65.8446 88.057 67.0796 88.0382C68.3146 88.0195 69.3516 89.7376 69.3987 91.9243Z" fill="#040505"/>
<path d="M92.7788 91.9243C92.7348 94.0861 93.6996 95.8573 94.9346 95.8729C96.1696 95.8886 97.2066 94.1517 97.2537 91.9868C97.3009 89.822 96.333 88.057 95.098 88.0382C93.863 88.0195 92.826 89.7376 92.7788 91.9243Z" fill="#040505"/>
<path d="M66.0489 92.7397C65.7934 92.082 65.7344 91.365 65.8792 90.6748C66.0032 89.9846 66.3214 89.3434 66.7968 88.8255H66.8157C66.1298 90 65.8681 91.3722 66.0741 92.7147L66.0489 92.7397Z" fill="white"/>
<path d="M94.0422 92.7397C93.7883 92.0849 93.7294 91.3713 93.8725 90.6842C93.9965 89.9946 94.3135 89.3537 94.7869 88.8348H94.8089C94.1213 90.0087 93.8595 91.3815 94.0673 92.7241L94.0422 92.7397Z" fill="white"/>
<path d="M62.3313 33.1953C62.3697 31.6713 62.7148 30.1705 63.3463 28.7813C64.6274 25.9387 66.8921 23.6475 69.7287 22.3242C71.1145 21.6704 72.6178 21.2986 74.1502 21.2308C72.7755 21.7611 71.4531 22.4168 70.2001 23.1895C67.7603 24.7094 65.7148 26.7792 64.2293 29.2311C63.4741 30.491 62.8386 31.8181 62.3313 33.1953Z" fill="#E0E2E2"/>
<path d="M105.977 52.7164C109.242 54.3506 111.814 57.0887 113.23 60.4387C114.697 63.9923 114.894 67.9383 113.789 71.619" fill="#EDEDED"/>
<path d="M111.253 60.3013C111.015 48.0307 95.7358 45.9658 95.7358 45.9658L111.253 60.3013Z" fill="#EDEDED"/>
<path d="M46.179 82.0154C45.5096 79.7818 43.115 70.8881 47.2663 61.3071C50.0576 54.8555 55.2181 49.7043 61.6966 46.9029" stroke="#EDEDED" stroke-width="2" stroke-miterlimit="10"/>
<path d="M95.7329 45.9658C97.2193 46.2532 105.924 48.0369 111.21 54.4002C116.407 60.648 114.424 66.6427 114.038 67.7017" stroke="#EDEDED" stroke-width="2" stroke-miterlimit="10"/>
<path opacity="0.8" d="M48.4164 105.226C48.9388 105.226 49.3623 104.805 49.3623 104.286C49.3623 103.766 48.9388 103.345 48.4164 103.345C47.894 103.345 47.4706 103.766 47.4706 104.286C47.4706 104.805 47.894 105.226 48.4164 105.226Z" fill="#398EBB"/>
<path opacity="0.8" d="M113.812 105.457C114.334 105.457 114.758 105.036 114.758 104.517C114.758 103.997 114.334 103.576 113.812 103.576C113.289 103.576 112.866 103.997 112.866 104.517C112.866 105.036 113.289 105.457 113.812 105.457Z" fill="#398EBB"/>
<path opacity="0.5" d="M106.788 96.7834C107.297 91.2753 103.217 86.4006 97.6758 85.8955C92.1349 85.3903 87.2311 89.446 86.723 94.9541C86.2148 100.462 90.2947 105.337 95.8356 105.842C101.377 106.347 106.28 102.292 106.788 96.7834Z" fill="#B3DAE5" stroke="#805F6B" stroke-width="1.34" stroke-miterlimit="10"/>
<path opacity="0.5" d="M75.3834 98.3175C76.7474 92.955 73.4801 87.5087 68.0857 86.1528C62.6913 84.7969 57.2125 88.0448 55.8485 93.4073C54.4845 98.7698 57.7518 104.216 63.1462 105.572C68.5406 106.928 74.0194 103.68 75.3834 98.3175Z" fill="#B3DAE5" stroke="#805F6B" stroke-width="1.34" stroke-miterlimit="10"/>
<g opacity="0.6">
<path opacity="0.6" d="M67.5478 104.373C66.2445 104.654 64.892 104.616 63.6071 104.261C62.9512 104.089 62.3183 103.84 61.7216 103.52C61.1249 103.195 60.5636 102.81 60.0466 102.371C59.5419 101.917 59.085 101.414 58.6828 100.868C58.2933 100.32 57.9666 99.7297 57.7086 99.1093C57.1878 97.8885 56.9722 96.5605 57.0801 95.2388H57.1429C57.2443 96.5101 57.5854 97.751 58.1485 98.8969C58.7143 100.04 59.5016 101.062 60.4652 101.902C61.4289 102.743 62.55 103.386 63.7642 103.795C64.9773 104.202 66.2567 104.377 67.5352 104.311L67.5478 104.373Z" fill="white"/>
</g>
<g opacity="0.6">
<path opacity="0.6" d="M98.9917 104.335C97.6885 104.617 96.3359 104.578 95.0511 104.223C94.3961 104.049 93.7635 103.8 93.1656 103.483C92.5688 103.157 92.0075 102.771 91.4906 102.33C90.986 101.877 90.529 101.375 90.1268 100.831C89.7346 100.283 89.4057 99.6927 89.1463 99.0718C88.6254 97.8521 88.4098 96.5251 88.5178 95.2044H88.5807C88.682 96.4767 89.0231 97.7186 89.5863 98.8656C90.1522 100.008 90.9392 101.028 91.9023 101.868C92.8637 102.71 93.9844 103.354 95.1987 103.761C96.4116 104.168 97.6911 104.344 98.9697 104.279L98.9917 104.335Z" fill="white"/>
</g>
<path d="M75.69 96.7601C75.8377 96.5696 78.248 93.5956 82.0033 93.9986C83.8623 94.2312 85.5551 95.1802 86.717 96.6414" stroke="#805F6B" stroke-width="1.43" stroke-miterlimit="10"/>
</svg>
