<svg width="203" height="168" viewBox="0 0 203 168" fill="none" xmlns="http://www.w3.org/2000/svg">
<path fill-rule="evenodd" clip-rule="evenodd" d="M74.1143 0.0469282C70.9949 0.216554 67.9317 1.01124 65.0654 2.39456C62.6729 3.54923 60.6314 4.98372 58.7273 6.84832C57.4199 8.12855 56.5354 9.18417 55.5753 10.6098C53.3328 13.9396 52.0205 17.6087 51.5927 21.7453C51.5045 22.5978 51.5 23.9644 51.5 50.0503C51.5 76.1362 51.5045 77.5028 51.5927 78.3553C52.1105 83.3618 53.9411 87.7111 57.1614 91.5865C57.7101 92.2468 59.3399 93.876 59.9982 94.4223C62.0809 96.1507 64.2533 97.4488 66.6278 98.3837C68.5074 99.1239 70.0492 99.527 72.387 99.8896C72.9118 99.9711 74.8734 99.9782 101.158 99.9947C122.23 100.008 129.528 99.9974 130.006 99.9531C135.659 99.4301 141.287 96.6315 145.168 92.4135C148.711 88.5635 150.842 83.9068 151.428 78.7392C151.502 78.0917 151.508 75.2976 151.494 49.7432C151.479 22.9647 151.474 21.4312 151.388 20.8496C151.153 19.2615 150.74 17.5315 150.277 16.1918C148.423 10.8261 144.732 6.28765 139.86 3.38236C136.52 1.39011 132.817 0.269785 128.828 0.0440619C127.757 -0.0164893 75.2306 -0.0137766 74.1143 0.0469282ZM106.431 12.709C108.103 12.8613 109.478 13.0715 110.987 13.4057C120.896 15.6 129.371 22.0353 134.137 30.9841C135.456 33.4608 136.467 36.0857 137.149 38.8061C137.431 39.9314 137.749 41.506 137.816 42.1041L137.852 42.4242L131.178 42.4112L124.504 42.3982L124.338 41.784C123.347 38.1226 121.549 34.9487 118.948 32.2703C113.568 26.7309 105.668 24.5113 98.1356 26.4228C96.2802 26.8937 94.1267 27.7901 92.4806 28.7768L91.8407 29.1604L91.8275 21.9339C91.8203 17.9593 91.8248 14.68 91.8376 14.6464C91.8891 14.5109 94.4558 13.7515 96.0277 13.4068C98.0065 12.9727 99.4522 12.7808 102.003 12.6132C102.647 12.5708 105.621 12.6352 106.431 12.709ZM81.8835 36.5291C81.8835 45.5048 81.8988 56.4454 81.9176 60.8417L81.9516 68.835H91.0302H100.109L100.096 75.3994L100.083 81.9638H84.4432H68.8035L68.7878 64.5099C68.7715 46.371 68.7768 45.8193 68.9865 43.755C69.7924 35.8209 73.3016 28.4405 78.9654 22.7677C79.9966 21.7349 81.7106 20.2098 81.8402 20.2098C81.864 20.2098 81.8835 27.5535 81.8835 36.5291ZM137.838 52.3933C137.838 52.5166 137.553 54.0332 137.398 54.7337C135.625 62.7511 131.047 69.9185 124.528 74.8833C121.429 77.2431 118.034 79.0276 114.336 80.2398C112.9 80.7106 110.528 81.324 110.143 81.324C110.04 81.324 110.04 81.3088 110.04 74.5744V67.8248L110.59 67.6303C115.919 65.7467 120.272 61.9245 122.78 56.9255C123.333 55.8221 123.973 54.1296 124.301 52.9038L124.448 52.3536H131.143C134.825 52.3536 137.838 52.3715 137.838 52.3933Z" fill="#205EFF"/>
<path d="M0 167.413V126.053H7.6143V161.019H27.2108V167.413H0Z" fill="#222222"/>
<path d="M30.9631 167.413V137.787H38.3413V167.413H30.9631ZM30.5499 132.213V125.056H38.7544V132.213H30.5499Z" fill="#222222"/>
<path d="M47.8847 167.413V143.301H42.1593V137.787H49.9506L47.8847 139.664V135.147C47.8847 131.47 48.8292 128.693 50.718 126.816C52.6461 124.939 55.4597 124 59.1586 124C60.0243 124 60.9294 124.059 61.8738 124.176C62.8576 124.293 63.7036 124.508 64.4119 124.821V130.571C63.9004 130.375 63.2904 130.219 62.5821 130.101C61.8738 129.984 61.1852 129.925 60.5162 129.925C59.4931 129.925 58.5684 130.121 57.742 130.512C56.955 130.903 56.3254 131.509 55.8532 132.331C55.4203 133.113 55.2039 134.169 55.2039 135.499V139.077L54.1415 137.787H63.0543V143.301H55.2629V167.413H47.8847Z" fill="#222222"/>
<path d="M79.5356 168C74.5381 168 70.6227 166.631 67.7895 163.893C64.9563 161.156 63.5396 157.401 63.5396 152.629C63.5396 149.54 64.1496 146.841 65.3694 144.533C66.5893 142.226 68.2814 140.427 70.4456 139.136C72.6493 137.845 75.207 137.2 78.119 137.2C80.9915 137.2 83.3919 137.806 85.3201 139.019C87.2483 140.231 88.7042 141.932 89.688 144.123C90.7111 146.313 91.2226 148.875 91.2226 151.808V153.744H69.5012V149.872H85.9694L84.9659 150.693C84.9659 147.956 84.3757 145.863 83.1952 144.416C82.054 142.969 80.3816 142.245 78.178 142.245C75.7383 142.245 73.8494 143.106 72.5115 144.827C71.213 146.548 70.5637 148.953 70.5637 152.043V152.805C70.5637 156.012 71.3507 158.418 72.9247 160.021C74.5381 161.586 76.8007 162.368 79.7127 162.368C81.4047 162.368 82.9787 162.153 84.4347 161.723C85.93 161.253 87.3466 160.51 88.6845 159.493L90.8685 164.421C89.4519 165.556 87.7598 166.436 85.7923 167.061C83.8248 167.687 81.7392 168 79.5356 168Z" fill="#222222"/>
<path d="M108.803 168C105.734 168 103.039 167.374 100.717 166.123C98.4347 164.871 96.6639 163.092 95.4047 160.784C94.1455 158.437 93.5159 155.66 93.5159 152.453C93.5159 149.246 94.1455 146.508 95.4047 144.24C96.7032 141.972 98.4937 140.231 100.776 139.019C103.058 137.806 105.734 137.2 108.803 137.2C110.771 137.2 112.68 137.513 114.529 138.139C116.418 138.725 117.952 139.586 119.133 140.72L116.89 145.824C115.828 144.846 114.627 144.123 113.289 143.653C111.991 143.145 110.712 142.891 109.453 142.891C106.816 142.891 104.75 143.712 103.255 145.355C101.799 146.997 101.071 149.383 101.071 152.512C101.071 155.641 101.799 158.046 103.255 159.728C104.75 161.41 106.816 162.251 109.453 162.251C110.673 162.251 111.932 162.016 113.23 161.547C114.568 161.077 115.788 160.354 116.89 159.376L119.133 164.421C117.913 165.556 116.359 166.436 114.47 167.061C112.62 167.687 110.732 168 108.803 168Z" fill="#222222"/>
<path d="M133.829 168C131.232 168 128.95 167.394 126.982 166.181C125.014 164.93 123.48 163.15 122.378 160.843C121.276 158.535 120.725 155.778 120.725 152.571C120.725 149.364 121.276 146.626 122.378 144.357C123.48 142.05 125.014 140.29 126.982 139.077C128.95 137.826 131.232 137.2 133.829 137.2C136.347 137.2 138.551 137.826 140.44 139.077C142.368 140.29 143.647 141.932 144.276 144.005H143.627L144.276 137.787H151.36C151.241 138.999 151.123 140.231 151.005 141.483C150.927 142.734 150.887 143.966 150.887 145.179V167.413H143.568L143.509 161.312H144.217C143.588 163.346 142.309 164.969 140.381 166.181C138.453 167.394 136.269 168 133.829 168ZM135.895 162.368C138.217 162.368 140.086 161.566 141.502 159.963C142.919 158.32 143.627 155.856 143.627 152.571C143.627 149.285 142.919 146.841 141.502 145.237C140.086 143.634 138.217 142.832 135.895 142.832C133.573 142.832 131.704 143.634 130.287 145.237C128.871 146.841 128.162 149.285 128.162 152.571C128.162 155.856 128.851 158.32 130.228 159.963C131.645 161.566 133.534 162.368 135.895 162.368Z" fill="#222222"/>
<path d="M156.502 167.413V145.355C156.502 144.103 156.462 142.832 156.384 141.541C156.344 140.251 156.246 138.999 156.089 137.787H163.231L164.057 145.883H162.876C163.27 143.927 163.919 142.304 164.824 141.013C165.769 139.723 166.91 138.764 168.248 138.139C169.586 137.513 171.042 137.2 172.616 137.2C173.324 137.2 173.895 137.239 174.327 137.317C174.76 137.356 175.193 137.454 175.626 137.611L175.567 144.064C174.819 143.751 174.17 143.556 173.619 143.477C173.108 143.399 172.458 143.36 171.671 143.36C169.979 143.36 168.543 143.712 167.362 144.416C166.221 145.12 165.356 146.098 164.765 147.349C164.214 148.601 163.939 150.028 163.939 151.632V167.413H156.502Z" fill="#222222"/>
<path d="M191.313 168C186.315 168 182.4 166.631 179.567 163.893C176.734 161.156 175.317 157.401 175.317 152.629C175.317 149.54 175.927 146.841 177.147 144.533C178.367 142.226 180.059 140.427 182.223 139.136C184.427 137.845 186.984 137.2 189.896 137.2C192.769 137.2 195.169 137.806 197.097 139.019C199.026 140.231 200.482 141.932 201.465 144.123C202.488 146.313 203 148.875 203 151.808V153.744H181.279V149.872H197.747L196.743 150.693C196.743 147.956 196.153 145.863 194.973 144.416C193.831 142.969 192.159 142.245 189.955 142.245C187.516 142.245 185.627 143.106 184.289 144.827C182.99 146.548 182.341 148.953 182.341 152.043V152.805C182.341 156.012 183.128 158.418 184.702 160.021C186.315 161.586 188.578 162.368 191.49 162.368C193.182 162.368 194.756 162.153 196.212 161.723C197.707 161.253 199.124 160.51 200.462 159.493L202.646 164.421C201.229 165.556 199.537 166.436 197.57 167.061C195.602 167.687 193.517 168 191.313 168Z" fill="#222222"/>
</svg>
